<svg id="Layer_1" data-name="Layer 1" xmlns="http://www.w3.org/2000/svg" viewBox="0 0 292.99 87.53"><defs><style>.cls-1{fill:#df9046;}.cls-2{fill:#2c5a86;}.cls-3{fill:#fff;}.cls-4{fill:#28689d;}</style></defs><path class="cls-1" d="M154.6,387.45c0-1.22,0-2.45.09-3.67s.15-2.44.27-3.66.27-2.43.45-3.65.39-2.41.63-3.61.51-2.4.81-3.59.62-2.36,1-3.53.74-2.34,1.16-3.49.85-2.3,1.32-3.43,1-2.25,1.49-3.35,1.07-2.2,1.65-3.28,1.18-2.15,1.81-3.2,1.28-2.08,2-3.1,1.39-2,2.11-3,1.49-1.95,2.26-2.9,1.58-1.87,2.4-2.78,1.67-1.79,2.53-2.66,1.76-1.71,2.66-2.53,1.84-1.62,2.78-2.4,1.91-1.53,2.9-2.25,2-1.44,3-2.12,2.05-1.33,3.1-2,2.12-1.24,3.2-1.81,2.17-1.13,3.28-1.65,2.22-1,3.35-1.49,2.28-.91,3.43-1.32,2.31-.8,3.49-1.15,2.35-.69,3.53-1,2.39-.57,3.59-.81,2.4-.45,3.61-.63,2.43-.33,3.65-.45,2.44-.21,3.66-.27,2.45-.09,3.67-.09,2.45,0,3.67.09,2.44.15,3.66.27,2.44.27,3.65.45,2.41.39,3.61.63,2.4.51,3.59.81,2.36.62,3.54,1,2.33.73,3.48,1.15,2.3.85,3.43,1.32,2.25,1,3.35,1.49,2.2,1.07,3.28,1.65,2.15,1.18,3.2,1.81,2.08,1.28,3.1,2,2,1.39,3,2.12,1.95,1.48,2.9,2.25,1.87,1.58,2.78,2.4,1.79,1.67,2.66,2.53,1.71,1.76,2.53,2.66,1.62,1.84,2.4,2.78,1.53,1.92,2.26,2.9,1.43,2,2.11,3,1.33,2.05,2,3.1,1.24,2.12,1.81,3.2,1.13,2.17,1.65,3.28,1,2.22,1.49,3.35.91,2.28,1.32,3.43.8,2.31,1.16,3.49.68,2.35,1,3.53.57,2.39.81,3.59.45,2.4.63,3.61.33,2.43.45,3.65.21,2.44.27,3.66.09,2.45.09,3.67H277.29c0-1.57-.08-3.13-.23-4.69s-.39-3.11-.69-4.65-.69-3.06-1.15-4.56a46.49,46.49,0,0,0-1.58-4.42q-.9-2.17-2-4.25t-2.41-4c-.87-1.3-1.81-2.56-2.8-3.77s-2.05-2.37-3.16-3.48-2.27-2.16-3.48-3.16-2.47-1.93-3.77-2.8-2.65-1.67-4-2.41-2.8-1.41-4.25-2a46.49,46.49,0,0,0-4.42-1.58c-1.5-.46-3-.84-4.56-1.15s-3.09-.53-4.65-.69-3.12-.23-4.69-.23-3.13.08-4.69.23-3.11.39-4.65.69-3.06.69-4.56,1.15a46.49,46.49,0,0,0-4.42,1.58q-2.18.9-4.25,2t-4,2.41c-1.3.87-2.56,1.81-3.77,2.8s-2.37,2.05-3.48,3.16-2.16,2.27-3.16,3.48-1.93,2.47-2.8,3.77-1.67,2.65-2.41,4-1.41,2.8-2,4.25a46.49,46.49,0,0,0-1.58,4.42c-.46,1.5-.84,3-1.15,4.56s-.53,3.09-.69,4.65-.23,3.12-.23,4.69Z" transform="translate(-154.6 -312.64)"/><path class="cls-2" d="M235.9,383.69a7.87,7.87,0,0,1-.85,1.2,7.78,7.78,0,0,1-1.07,1,7.6,7.6,0,0,1-1.24.78,7.39,7.39,0,0,1-1.38.52,7,7,0,0,1-1.44.24,7.37,7.37,0,0,1-2.9-.37,8,8,0,0,1-1.33-.6,7.87,7.87,0,0,1-1.2-.85,7.78,7.78,0,0,1-1-1.07,7.38,7.38,0,0,1-1.3-2.61,7.48,7.48,0,0,1,.13-4.35,8,8,0,0,1,.6-1.33l34.68-48.4a1.46,1.46,0,0,1,.38-.44,1.5,1.5,0,0,1,.52-.26,1.48,1.48,0,0,1,.59,0,1.32,1.32,0,0,1,.55.18,1.49,1.49,0,0,1,.44.39,1.48,1.48,0,0,1,.3,1.1,1.55,1.55,0,0,1-.19.56Z" transform="translate(-154.6 -312.64)"/><rect class="cls-3" x="101.27" y="51.35" width="83.93" height="33.79"/><path class="cls-2" d="M262.83,362.35v13.5a25,25,0,0,1-.16,3,8.63,8.63,0,0,1-.75,2.49,7,7,0,0,1-3.19,3.32,11.38,11.38,0,0,1-5.41,1.18,12.25,12.25,0,0,1-4.81-.82,6.79,6.79,0,0,1-3.1-2.67,9.63,9.63,0,0,1-1-2.27,8.41,8.41,0,0,1-.38-2.45,2.36,2.36,0,0,1,.75-1.88,2.87,2.87,0,0,1,1.93-.65,2.28,2.28,0,0,1,1.72.6,3.94,3.94,0,0,1,.89,1.86,15.73,15.73,0,0,0,.66,2.17,3.33,3.33,0,0,0,1.1,1.39,3.68,3.68,0,0,0,2.21.58c2.54,0,3.81-1.7,3.81-5.08V362.35a3.26,3.26,0,0,1,.76-2.37,2.74,2.74,0,0,1,2.08-.79,2.85,2.85,0,0,1,2.12.79A3.22,3.22,0,0,1,262.83,362.35Z" transform="translate(-154.6 -312.64)"/><path class="cls-2" d="M262.83,362.35h-.51v13.5a23.55,23.55,0,0,1-.16,2.92,8.5,8.5,0,0,1-.71,2.35h0a6.42,6.42,0,0,1-3,3.07,10.77,10.77,0,0,1-5.17,1.13,11.84,11.84,0,0,1-4.61-.78,6.42,6.42,0,0,1-2.87-2.48h0a9,9,0,0,1-1-2.14,8.12,8.12,0,0,1-.36-2.3,1.83,1.83,0,0,1,.58-1.49,2.32,2.32,0,0,1,1.59-.52,1.81,1.81,0,0,1,1.36.44,3.53,3.53,0,0,1,.75,1.63,16.81,16.81,0,0,0,.69,2.23,3.84,3.84,0,0,0,1.26,1.61,4.14,4.14,0,0,0,2.52.68,3.87,3.87,0,0,0,3.27-1.48,6.79,6.79,0,0,0,1.05-4.11V362.35a2.83,2.83,0,0,1,.62-2,2.24,2.24,0,0,1,1.71-.63,2.3,2.3,0,0,1,1.75.64,2.75,2.75,0,0,1,.64,2h1a3.73,3.73,0,0,0-.93-2.74,3.39,3.39,0,0,0-2.48-.94,3.28,3.28,0,0,0-2.45.95,3.82,3.82,0,0,0-.91,2.73v14.26a5.83,5.83,0,0,1-.85,3.5,2.82,2.82,0,0,1-2.44,1.06,3.1,3.1,0,0,1-1.9-.48,2.71,2.71,0,0,1-.93-1.17,15,15,0,0,1-.64-2.09,4.54,4.54,0,0,0-1-2.1,2.83,2.83,0,0,0-2.09-.75,3.43,3.43,0,0,0-2.27.77,2.91,2.91,0,0,0-.93,2.27,9,9,0,0,0,.41,2.6,9.84,9.84,0,0,0,1.06,2.39h0a7.29,7.29,0,0,0,3.33,2.87,12.67,12.67,0,0,0,5,.87A11.84,11.84,0,0,0,259,385.1a7.49,7.49,0,0,0,3.42-3.55h0a9.32,9.32,0,0,0,.78-2.64,22.55,22.55,0,0,0,.17-3.06v-13.5Z" transform="translate(-154.6 -312.64)"/><path class="cls-2" d="M282,383.13a16.92,16.92,0,0,1-3.7,2,11.32,11.32,0,0,1-4,.67,8.16,8.16,0,0,1-3.57-.73,5.6,5.6,0,0,1-2.37-2,4.78,4.78,0,0,1-.83-2.71,4.64,4.64,0,0,1,1.37-3.36,7.15,7.15,0,0,1,3.77-1.86l2.5-.48c1.32-.24,2.46-.47,3.41-.67s2-.46,3.08-.75a4.67,4.67,0,0,0-.84-2.79c-.5-.59-1.52-.88-3.08-.88a7,7,0,0,0-3,.51,4.69,4.69,0,0,0-1.74,1.53,16,16,0,0,1-1,1.34,1.79,1.79,0,0,1-1.29.33,2.43,2.43,0,0,1-1.54-.52,1.63,1.63,0,0,1-.64-1.33,3.83,3.83,0,0,1,1-2.46,7.08,7.08,0,0,1,3.08-2,15,15,0,0,1,5.2-.77,16.29,16.29,0,0,1,5.47.74A4.93,4.93,0,0,1,286,369.4a9.5,9.5,0,0,1,.82,4.29c0,1.12,0,2.08,0,2.86s0,1.66,0,2.62a8.82,8.82,0,0,0,.49,2.82,8.12,8.12,0,0,1,.49,1.89,1.72,1.72,0,0,1-.76,1.35,2.74,2.74,0,0,1-1.73.6,2.46,2.46,0,0,1-1.61-.69A10.18,10.18,0,0,1,282,383.13Zm-.35-6.95a28.79,28.79,0,0,1-3.37.82c-1.48.29-2.5.5-3.07.63a4.43,4.43,0,0,0-1.62.79,2,2,0,0,0-.77,1.65,2.35,2.35,0,0,0,.9,1.85,3.58,3.58,0,0,0,2.38.77,6.61,6.61,0,0,0,2.89-.63,4.46,4.46,0,0,0,1.95-1.6,6.89,6.89,0,0,0,.71-3.59Z" transform="translate(-154.6 -312.64)"/><path class="cls-2" d="M282,383.13l-.3-.42a16.52,16.52,0,0,1-3.58,2,10.91,10.91,0,0,1-3.83.64,7.67,7.67,0,0,1-3.35-.68,5.11,5.11,0,0,1-2.16-1.8,4.27,4.27,0,0,1-.75-2.42,4.11,4.11,0,0,1,1.23-3,6.68,6.68,0,0,1,3.5-1.72h0l2.48-.47c1.33-.25,2.47-.47,3.43-.68s2-.46,3.1-.75l.41-.11,0-.42a5.14,5.14,0,0,0-1-3.09,2.74,2.74,0,0,0-1.39-.83,7.88,7.88,0,0,0-2.08-.24,7.51,7.51,0,0,0-3.26.57,5.27,5.27,0,0,0-1.93,1.69,14.59,14.59,0,0,1-1,1.29.45.45,0,0,1-.22.1,3,3,0,0,1-.69.06,1.89,1.89,0,0,1-1.22-.4,1.12,1.12,0,0,1-.45-.93,3.3,3.3,0,0,1,.87-2.13,6.62,6.62,0,0,1,2.85-1.82,14.84,14.84,0,0,1,5-.74,15.51,15.51,0,0,1,5.29.72,4.34,4.34,0,0,1,2.53,2.11,9,9,0,0,1,.77,4.06c0,1.12,0,2.08,0,2.86s0,1.65,0,2.62h0a9.51,9.51,0,0,0,.52,3q.24.72.36,1.17a3.14,3.14,0,0,1,.11.55,1.25,1.25,0,0,1-.57.95,2.22,2.22,0,0,1-1.41.49,1.93,1.93,0,0,1-1.27-.57,9.9,9.9,0,0,1-1.59-1.91l-.3-.44-.43.31.3.42-.43.28a11.22,11.22,0,0,0,1.77,2.12,3,3,0,0,0,1.95.82,3.26,3.26,0,0,0,2.05-.72,2.27,2.27,0,0,0,1-1.75,4.44,4.44,0,0,0-.14-.81c-.09-.33-.22-.74-.38-1.24a8.17,8.17,0,0,1-.47-2.66h0c0-1,0-1.84,0-2.62s0-1.75,0-2.87a10,10,0,0,0-.88-4.52,5.44,5.44,0,0,0-3.09-2.62,16.54,16.54,0,0,0-5.65-.78,15.43,15.43,0,0,0-5.38.81,7.55,7.55,0,0,0-3.3,2.12,4.38,4.38,0,0,0-1.1,2.79,2.14,2.14,0,0,0,.84,1.73,2.93,2.93,0,0,0,1.86.63,3.76,3.76,0,0,0,.94-.1,1.46,1.46,0,0,0,.72-.39,15.85,15.85,0,0,0,1.07-1.4A4.16,4.16,0,0,1,275,370.6a6.47,6.47,0,0,1,2.8-.46,6.72,6.72,0,0,1,1.8.2,1.78,1.78,0,0,1,.89.5,4.3,4.3,0,0,1,.72,2.49l.51,0-.13-.5c-1.1.3-2.12.54-3.06.75s-2.07.42-3.4.67-2.16.4-2.5.48l.1.5-.1-.51a7.67,7.67,0,0,0-4,2,5.14,5.14,0,0,0-1.53,3.72,5.3,5.3,0,0,0,.92,3,6.19,6.19,0,0,0,2.58,2.16,8.79,8.79,0,0,0,3.79.78,11.92,11.92,0,0,0,4.19-.71,17.53,17.53,0,0,0,3.82-2.09l-.3-.42-.43.28Zm-.35-6.95-.16-.48a31.3,31.3,0,0,1-3.31.8c-1.48.28-2.5.5-3.09.63a4.94,4.94,0,0,0-1.81.89,2.46,2.46,0,0,0-1,2.05,2.87,2.87,0,0,0,1.09,2.25,4.13,4.13,0,0,0,2.71.88,7.21,7.21,0,0,0,3.11-.67,4.92,4.92,0,0,0,2.16-1.8l-.43-.27.43.28a7.28,7.28,0,0,0,.8-3.87v-1.4l-.68.23.16.48h-.51v.69a6.41,6.41,0,0,1-.63,3.3h0a3.94,3.94,0,0,1-1.73,1.42,6.18,6.18,0,0,1-2.67.57,3,3,0,0,1-2-.64,1.81,1.81,0,0,1-.73-1.46,1.44,1.44,0,0,1,.57-1.24,4,4,0,0,1,1.43-.7c.55-.13,1.57-.34,3-.62a29.15,29.15,0,0,0,3.43-.84l-.16-.49h0Z" transform="translate(-154.6 -312.64)"/><path class="cls-2" d="M295.93,369.31l4.28,10.9,4.6-11.37a6.47,6.47,0,0,1,1.06-1.95,2.06,2.06,0,0,1,1.59-.57,2.52,2.52,0,0,1,1.71.62,1.83,1.83,0,0,1,.7,1.42,2.76,2.76,0,0,1-.12.74,8.11,8.11,0,0,1-.29.79l-.38.84L304,382.16l-.56,1.25a6.08,6.08,0,0,1-.75,1.29,3,3,0,0,1-1,.84,3.49,3.49,0,0,1-1.48.29,3.06,3.06,0,0,1-1.79-.46,3.17,3.17,0,0,1-1-1c-.21-.37-.57-1.1-1.07-2.19l-5-11.3c-.12-.28-.23-.57-.36-.85a8,8,0,0,1-.31-.86,2.89,2.89,0,0,1-.12-.75,1.72,1.72,0,0,1,.33-1,2.43,2.43,0,0,1,.91-.79,2.55,2.55,0,0,1,1.25-.31,2.08,2.08,0,0,1,1.81.69A10.17,10.17,0,0,1,295.93,369.31Z" transform="translate(-154.6 -312.64)"/><path class="cls-2" d="M295.93,369.31l-.48.19,4.75,12.1L305.28,369h0a6,6,0,0,1,1-1.78,1.55,1.55,0,0,1,1.21-.4,2,2,0,0,1,1.37.49,1.31,1.31,0,0,1,.53,1,2.25,2.25,0,0,1-.1.59,6.19,6.19,0,0,1-.27.73l-.38.84L303.55,382h0L303,383.2a6.23,6.23,0,0,1-.7,1.19,2.32,2.32,0,0,1-.84.68,2.77,2.77,0,0,1-1.25.25,2.6,2.6,0,0,1-1.5-.37,2.66,2.66,0,0,1-.83-.86c-.2-.33-.56-1.06-1.05-2.15l-.47.22.47-.21-5-11.3-.47.21.48-.2c-.12-.28-.24-.57-.37-.85a7.58,7.58,0,0,1-.28-.8,2.18,2.18,0,0,1-.11-.61,1.22,1.22,0,0,1,.24-.69,2,2,0,0,1,.73-.63,2.15,2.15,0,0,1,1-.24,2.79,2.79,0,0,1,.93.13,1,1,0,0,1,.46.34,9.75,9.75,0,0,1,1,2.18h0l.48-.19.48-.18a10.38,10.38,0,0,0-1.15-2.42,2,2,0,0,0-.94-.7,3.72,3.72,0,0,0-1.29-.2,3.11,3.11,0,0,0-1.5.37,3,3,0,0,0-1.09.95,2.29,2.29,0,0,0-.42,1.27,3.38,3.38,0,0,0,.15.89,7.32,7.32,0,0,0,.33.93l.36.83h0l5,11.31h0c.51,1.09.86,1.82,1.1,2.22a3.64,3.64,0,0,0,1.13,1.19,3.59,3.59,0,0,0,2.09.56,3.86,3.86,0,0,0,1.7-.35,3.61,3.61,0,0,0,1.21-1,7.46,7.46,0,0,0,.81-1.4l.56-1.26h0l5.06-11.43h0l.38-.84a7.1,7.1,0,0,0,.31-.85,3.32,3.32,0,0,0,.15-.89,2.41,2.41,0,0,0-.88-1.81,3,3,0,0,0-2.05-.74,2.52,2.52,0,0,0-2,.74,7,7,0,0,0-1.16,2.1h0l-4.12,10.18-3.8-9.7-.48.19.48-.18Z" transform="translate(-154.6 -312.64)"/><path class="cls-2" d="M327,383.13a16.75,16.75,0,0,1-3.71,2,11.28,11.28,0,0,1-4,.67,8.22,8.22,0,0,1-3.57-.73,5.72,5.72,0,0,1-2.37-2,4.85,4.85,0,0,1-.83-2.71,4.61,4.61,0,0,1,1.38-3.36,7.12,7.12,0,0,1,3.77-1.86l2.49-.48c1.33-.24,2.47-.47,3.41-.67s2-.46,3.09-.75a4.81,4.81,0,0,0-.84-2.79c-.5-.59-1.53-.88-3.09-.88a6.93,6.93,0,0,0-3,.51,4.69,4.69,0,0,0-1.74,1.53c-.49.68-.83,1.12-1,1.34a1.77,1.77,0,0,1-1.28.33,2.41,2.41,0,0,1-1.54-.52,1.64,1.64,0,0,1-.65-1.33,3.84,3.84,0,0,1,1-2.46,7,7,0,0,1,3.07-2,15,15,0,0,1,5.2-.77,16.25,16.25,0,0,1,5.47.74A5,5,0,0,1,331,369.4a9.5,9.5,0,0,1,.82,4.29c0,1.12,0,2.08,0,2.86s0,1.66,0,2.62a9.1,9.1,0,0,0,.49,2.82,8.36,8.36,0,0,1,.5,1.89,1.73,1.73,0,0,1-.77,1.35,2.72,2.72,0,0,1-1.73.6,2.44,2.44,0,0,1-1.6-.69A10.18,10.18,0,0,1,327,383.13Zm-.35-6.95a29,29,0,0,1-3.38.82q-2.2.44-3.06.63a4.48,4.48,0,0,0-1.63.79,2,2,0,0,0-.77,1.65,2.33,2.33,0,0,0,.91,1.85,3.58,3.58,0,0,0,2.38.77,6.64,6.64,0,0,0,2.89-.63,4.43,4.43,0,0,0,1.94-1.6,6.78,6.78,0,0,0,.72-3.59Z" transform="translate(-154.6 -312.64)"/><path class="cls-2" d="M327,383.13l-.3-.42a16.8,16.8,0,0,1-3.59,2,10.91,10.91,0,0,1-3.83.64,7.73,7.73,0,0,1-3.35-.68,5.17,5.17,0,0,1-2.16-1.8,4.26,4.26,0,0,1-.74-2.42,4.1,4.1,0,0,1,1.22-3,6.68,6.68,0,0,1,3.51-1.72h0l2.48-.47c1.34-.25,2.48-.47,3.43-.68s2-.46,3.11-.75l.4-.11,0-.42a5.21,5.21,0,0,0-1-3.09,2.83,2.83,0,0,0-1.39-.83,8,8,0,0,0-2.09-.24,7.49,7.49,0,0,0-3.25.57,5.19,5.19,0,0,0-1.93,1.69,14,14,0,0,1-1,1.29s-.06.06-.22.1a2.86,2.86,0,0,1-.68.06,1.85,1.85,0,0,1-1.22-.4,1.11,1.11,0,0,1-.46-.93,3.36,3.36,0,0,1,.87-2.13,6.66,6.66,0,0,1,2.86-1.82,14.78,14.78,0,0,1,5-.74,15.43,15.43,0,0,1,5.29.72,4.39,4.39,0,0,1,2.54,2.11,9,9,0,0,1,.77,4.06c0,1.12,0,2.08,0,2.86s0,1.65,0,2.62h0a9.23,9.23,0,0,0,.52,3q.24.72.36,1.17a2.09,2.09,0,0,1,.1.55,1.2,1.2,0,0,1-.57.95,2.2,2.2,0,0,1-1.41.49,1.89,1.89,0,0,1-1.26-.57,10.27,10.27,0,0,1-1.6-1.91l-.29-.44-.43.31.3.42-.43.28a10.86,10.86,0,0,0,1.77,2.12,3,3,0,0,0,1.94.82,3.24,3.24,0,0,0,2-.72,2.25,2.25,0,0,0,1-1.75,3.19,3.19,0,0,0-.14-.81c-.09-.33-.21-.74-.38-1.24a8.44,8.44,0,0,1-.47-2.66h0c0-1,0-1.84,0-2.62s0-1.75,0-2.87a10.09,10.09,0,0,0-.87-4.52,5.46,5.46,0,0,0-3.1-2.62,16.47,16.47,0,0,0-5.65-.78,15.43,15.43,0,0,0-5.38.81,7.58,7.58,0,0,0-3.29,2.12,4.38,4.38,0,0,0-1.1,2.79,2.14,2.14,0,0,0,.84,1.73,2.91,2.91,0,0,0,1.86.63,3.87,3.87,0,0,0,.94-.1,1.46,1.46,0,0,0,.72-.39c.23-.26.57-.71,1.06-1.4a4.26,4.26,0,0,1,1.56-1.36,6.39,6.39,0,0,1,2.79-.46,6.67,6.67,0,0,1,1.8.2,1.78,1.78,0,0,1,.89.5,4.23,4.23,0,0,1,.72,2.49l.52,0-.13-.5c-1.11.3-2.13.54-3.07.75s-2.07.42-3.39.67-2.16.4-2.51.48l.11.5-.1-.51a7.67,7.67,0,0,0-4,2,5.13,5.13,0,0,0-1.52,3.72,5.3,5.3,0,0,0,.92,3,6.22,6.22,0,0,0,2.57,2.16,8.85,8.85,0,0,0,3.79.78,11.88,11.88,0,0,0,4.19-.71,17.08,17.08,0,0,0,3.82-2.09l-.29-.42-.43.28Zm-.35-6.95-.17-.48a30.38,30.38,0,0,1-3.3.8c-1.48.28-2.51.5-3.09.63a5.06,5.06,0,0,0-1.82.89,2.45,2.45,0,0,0-1,2.05,2.87,2.87,0,0,0,1.09,2.25,4.09,4.09,0,0,0,2.71.88,7.24,7.24,0,0,0,3.11-.67,5,5,0,0,0,2.16-1.8l-.44-.27.43.28a7.18,7.18,0,0,0,.8-3.87v-1.4l-.68.23.17.48h-.52v.69a6.21,6.21,0,0,1-.63,3.3h0a3.94,3.94,0,0,1-1.73,1.42,6.21,6.21,0,0,1-2.67.57,3,3,0,0,1-2.05-.64,1.8,1.8,0,0,1-.72-1.46,1.41,1.41,0,0,1,.57-1.24,3.88,3.88,0,0,1,1.43-.7c.55-.13,1.57-.34,3-.62a28.9,28.9,0,0,0,3.44-.84l-.16-.49h0Z" transform="translate(-154.6 -312.64)"/><path class="cls-2" d="M354.18,379.56a5.49,5.49,0,0,1-1.06,3.4A6.48,6.48,0,0,1,350,385.1a15.29,15.29,0,0,1-5.06.73,13.36,13.36,0,0,1-4.87-.79,7,7,0,0,1-3-2,3.83,3.83,0,0,1-1-2.39,1.79,1.79,0,0,1,.62-1.35,2.29,2.29,0,0,1,1.57-.56,1.91,1.91,0,0,1,1.27.37,4.18,4.18,0,0,1,.86,1,5.39,5.39,0,0,0,1.94,1.92,6.34,6.34,0,0,0,3.08.63,4.75,4.75,0,0,0,2.6-.64,1.8,1.8,0,0,0,1-1.47,2,2,0,0,0-1.05-1.84,13.76,13.76,0,0,0-3.48-1.11,31.15,31.15,0,0,1-4.43-1.29,7.3,7.3,0,0,1-2.74-1.79,3.84,3.84,0,0,1-1-2.72,4.54,4.54,0,0,1,.94-2.73,6.52,6.52,0,0,1,2.8-2,11.59,11.59,0,0,1,4.45-.77,16,16,0,0,1,3.69.39,9.42,9.42,0,0,1,2.72,1,5.36,5.36,0,0,1,1.67,1.44,2.63,2.63,0,0,1,.57,1.54,1.7,1.7,0,0,1-.61,1.36,2.57,2.57,0,0,1-1.73.53,2.27,2.27,0,0,1-1.38-.43,8.68,8.68,0,0,1-1.31-1.26,4.66,4.66,0,0,0-1.41-1.13,4.86,4.86,0,0,0-2.21-.42,4.72,4.72,0,0,0-2.37.55,1.59,1.59,0,0,0-.95,1.38,1.45,1.45,0,0,0,.69,1.24,5.9,5.9,0,0,0,1.88.8c.79.21,1.87.47,3.25.78a18,18,0,0,1,4,1.3,6.6,6.6,0,0,1,2.36,1.78A3.7,3.7,0,0,1,354.18,379.56Z" transform="translate(-154.6 -312.64)"/><path class="cls-2" d="M354.18,379.56h-.51a5,5,0,0,1-1,3.09,6,6,0,0,1-2.9,2,15,15,0,0,1-4.89.7,12.9,12.9,0,0,1-4.69-.76,6.51,6.51,0,0,1-2.78-1.82,3.26,3.26,0,0,1-.85-2.06,1.22,1.22,0,0,1,.45-1,1.76,1.76,0,0,1,1.22-.43,1.48,1.48,0,0,1,1,.25,3.66,3.66,0,0,1,.74.91h0a6.07,6.07,0,0,0,2.13,2.09,6.85,6.85,0,0,0,3.33.7,5.33,5.33,0,0,0,2.88-.72,3.19,3.19,0,0,0,.91-.83,1.92,1.92,0,0,0,.34-1.08,2.68,2.68,0,0,0-.33-1.35,2.5,2.5,0,0,0-1-.94,14.38,14.38,0,0,0-3.61-1.16h0a30.29,30.29,0,0,1-4.36-1.27,6.68,6.68,0,0,1-2.55-1.66,3.28,3.28,0,0,1-.89-2.37,4,4,0,0,1,.85-2.42,6,6,0,0,1,2.57-1.88,11.08,11.08,0,0,1,4.26-.72,15.36,15.36,0,0,1,3.57.37,9.22,9.22,0,0,1,2.58,1,4.74,4.74,0,0,1,1.51,1.3,2.1,2.1,0,0,1,.47,1.24,1.17,1.17,0,0,1-.43,1,2.07,2.07,0,0,1-1.39.4,1.73,1.73,0,0,1-1.08-.32,8.68,8.68,0,0,1-1.22-1.19h0a5.22,5.22,0,0,0-1.56-1.24,5.28,5.28,0,0,0-2.45-.48,5.12,5.12,0,0,0-2.63.62,2.67,2.67,0,0,0-.88.78,1.83,1.83,0,0,0-.33,1,1.88,1.88,0,0,0,.24.94,2.25,2.25,0,0,0,.68.73,6.43,6.43,0,0,0,2,.87c.8.21,1.88.47,3.27.78a18.24,18.24,0,0,1,3.9,1.26,6,6,0,0,1,2.17,1.64,3.15,3.15,0,0,1,.7,2h1a4.24,4.24,0,0,0-.91-2.66,7,7,0,0,0-2.54-1.93,18.54,18.54,0,0,0-4.13-1.34c-1.37-.31-2.45-.57-3.23-.77a5.43,5.43,0,0,1-1.71-.73,1.1,1.1,0,0,1-.37-.38.87.87,0,0,1-.11-.44.79.79,0,0,1,.15-.46,1.68,1.68,0,0,1,.55-.47,4.14,4.14,0,0,1,2.11-.49,4.3,4.3,0,0,1,2,.37,4.07,4.07,0,0,1,1.26,1h0a9.38,9.38,0,0,0,1.39,1.34,2.8,2.8,0,0,0,1.69.52,3.13,3.13,0,0,0,2.07-.65,2.24,2.24,0,0,0,.78-1.75,3.11,3.11,0,0,0-.67-1.84,5.92,5.92,0,0,0-1.81-1.59,10.68,10.68,0,0,0-2.87-1.09,16.57,16.57,0,0,0-3.81-.4,12.17,12.17,0,0,0-4.65.8,7,7,0,0,0-3,2.22,5,5,0,0,0-1.05,3,4.41,4.41,0,0,0,1.16,3.07,7.91,7.91,0,0,0,2.93,1.92,31.8,31.8,0,0,0,4.51,1.31h0a14,14,0,0,1,3.33,1.06,1.51,1.51,0,0,1,.59.55,1.82,1.82,0,0,1,.2.84.88.88,0,0,1-.17.49,2,2,0,0,1-.61.55,4.31,4.31,0,0,1-2.33.56,5.88,5.88,0,0,1-2.83-.57,4.94,4.94,0,0,1-1.76-1.74l-.43.27.44-.26a4.8,4.8,0,0,0-1-1.17,2.44,2.44,0,0,0-1.6-.49,2.76,2.76,0,0,0-1.91.7,2.26,2.26,0,0,0-.79,1.73,4.33,4.33,0,0,0,1.08,2.71,7.53,7.53,0,0,0,3.21,2.13,13.87,13.87,0,0,0,5.06.83,15.9,15.9,0,0,0,5.23-.76,7,7,0,0,0,3.38-2.32,6.06,6.06,0,0,0,1.17-3.71Z" transform="translate(-154.6 -312.64)"/><path class="cls-2" d="M377.58,379.89a3.9,3.9,0,0,1-.59,1.92,6.61,6.61,0,0,1-1.8,1.94,9.58,9.58,0,0,1-3,1.49,14.35,14.35,0,0,1-4.14.56c-3.26,0-5.81-.87-7.64-2.59a9.13,9.13,0,0,1-2.75-7,10.59,10.59,0,0,1,1.26-5.22,8.55,8.55,0,0,1,3.64-3.5,12.09,12.09,0,0,1,5.68-1.24,12.42,12.42,0,0,1,3.76.54,10.17,10.17,0,0,1,2.9,1.41,6.74,6.74,0,0,1,1.82,1.84,3.38,3.38,0,0,1,.63,1.81,1.83,1.83,0,0,1-.71,1.46,2.55,2.55,0,0,1-1.71.6,1.8,1.8,0,0,1-1.09-.31,4.81,4.81,0,0,1-1-1,7.47,7.47,0,0,0-2-2,4.86,4.86,0,0,0-2.68-.67,4.73,4.73,0,0,0-3.77,1.66,6.75,6.75,0,0,0-1.43,4.54,8.13,8.13,0,0,0,.37,2.49,5.53,5.53,0,0,0,1.06,1.93,4.56,4.56,0,0,0,1.69,1.22,5.62,5.62,0,0,0,2.16.41,5.2,5.2,0,0,0,2.72-.67,6,6,0,0,0,2-2,4.66,4.66,0,0,1,1-1.26,2.27,2.27,0,0,1,3,.21A2,2,0,0,1,377.58,379.89Z" transform="translate(-154.6 -312.64)"/><path class="cls-2" d="M377.58,379.89h-.51a3.34,3.34,0,0,1-.52,1.66,6.26,6.26,0,0,1-1.67,1.79,9,9,0,0,1-2.88,1.4,13.56,13.56,0,0,1-4,.54c-3.18,0-5.57-.83-7.29-2.45a8.56,8.56,0,0,1-2.58-6.58,10.09,10.09,0,0,1,1.19-5,8.1,8.1,0,0,1,3.43-3.3,11.6,11.6,0,0,1,5.44-1.18,12.06,12.06,0,0,1,3.61.52,9.78,9.78,0,0,1,2.75,1.33,6.61,6.61,0,0,1,1.69,1.7,3,3,0,0,1,.55,1.54,1.32,1.32,0,0,1-.53,1.07,2.07,2.07,0,0,1-1.38.48,1.26,1.26,0,0,1-.79-.22,4.06,4.06,0,0,1-.87-.89l-.41.32.42-.3a8.09,8.09,0,0,0-2.16-2.14,5.45,5.45,0,0,0-3-.75A5.32,5.32,0,0,0,364,371.3a7.29,7.29,0,0,0-1.55,4.88,8.66,8.66,0,0,0,.39,2.65,5.87,5.87,0,0,0,1.17,2.11,4.94,4.94,0,0,0,1.87,1.35,5.94,5.94,0,0,0,2.36.45,5.68,5.68,0,0,0,3-.73,6.56,6.56,0,0,0,2.17-2.21h0a4.09,4.09,0,0,1,.93-1.13,1.6,1.6,0,0,1,1-.35,1.65,1.65,0,0,1,1.23.51,1.57,1.57,0,0,1,.5,1.07h1a2.5,2.5,0,0,0-.78-1.78,2.63,2.63,0,0,0-2-.82,2.55,2.55,0,0,0-1.7.57,5.13,5.13,0,0,0-1.16,1.4l.44.26-.43-.27a5.65,5.65,0,0,1-1.83,1.87,4.74,4.74,0,0,1-2.46.6,5,5,0,0,1-2-.38,4.06,4.06,0,0,1-1.49-1.07,5.13,5.13,0,0,1-1-1.76,7.41,7.41,0,0,1-.34-2.33,6.21,6.21,0,0,1,1.3-4.2,4.22,4.22,0,0,1,3.38-1.49,4.42,4.42,0,0,1,2.41.59,7.19,7.19,0,0,1,1.88,1.87h0a5.56,5.56,0,0,0,1.08,1.09,2.37,2.37,0,0,0,1.39.41,3.13,3.13,0,0,0,2.05-.72,2.39,2.39,0,0,0,.88-1.86,3.83,3.83,0,0,0-.71-2.09,7.3,7.3,0,0,0-1.95-2,10.76,10.76,0,0,0-3-1.48,12.94,12.94,0,0,0-3.92-.57,12.67,12.67,0,0,0-5.92,1.3,9.19,9.19,0,0,0-3.85,3.71,11.18,11.18,0,0,0-1.32,5.47,9.67,9.67,0,0,0,2.91,7.33c1.94,1.84,4.64,2.74,8,2.73a14.79,14.79,0,0,0,4.29-.58,10.06,10.06,0,0,0,3.2-1.57,7.4,7.4,0,0,0,1.94-2.09,4.44,4.44,0,0,0,.65-2.18Z" transform="translate(-154.6 -312.64)"/><path class="cls-2" d="M387.41,378.91v4a2.9,2.9,0,0,1-.75,2.18,2.62,2.62,0,0,1-1.92.73,2.52,2.52,0,0,1-1.87-.73,3,3,0,0,1-.74-2.18V369.56q0-3.24,2.58-3.24a2.23,2.23,0,0,1,1.89.76,3.86,3.86,0,0,1,.64,2.23,8.62,8.62,0,0,1,1.94-2.23,4.25,4.25,0,0,1,2.66-.76,7.29,7.29,0,0,1,3.23.76,2.27,2.27,0,0,1,1.56,2,1.83,1.83,0,0,1-.66,1.45,2.2,2.2,0,0,1-1.44.57,6.66,6.66,0,0,1-1.4-.32,7.09,7.09,0,0,0-2-.33,3.05,3.05,0,0,0-1.89.56,3.5,3.5,0,0,0-1.14,1.64,10.48,10.48,0,0,0-.56,2.59A34.73,34.73,0,0,0,387.41,378.91Z" transform="translate(-154.6 -312.64)"/><path class="cls-2" d="M387.41,378.91h-.51v4a2.39,2.39,0,0,1-.6,1.81,2.11,2.11,0,0,1-1.56.59,2,2,0,0,1-1.51-.59,2.44,2.44,0,0,1-.58-1.81V369.56a3.33,3.33,0,0,1,.53-2.11,1.77,1.77,0,0,1,1.53-.61,2.5,2.5,0,0,1,.94.15,1.18,1.18,0,0,1,.54.4,3.33,3.33,0,0,1,.53,1.94l.07,1.63.88-1.37a8,8,0,0,1,1.82-2.1,3.78,3.78,0,0,1,2.35-.65,6.83,6.83,0,0,1,3,.7,2.81,2.81,0,0,1,1,.73,1.29,1.29,0,0,1,.28.81,1.31,1.31,0,0,1-.49,1.06,1.62,1.62,0,0,1-1.1.45,3.24,3.24,0,0,1-.38-.07l-.88-.23a7.49,7.49,0,0,0-2.11-.35,3.57,3.57,0,0,0-2.2.66,4,4,0,0,0-1.31,1.87,10.83,10.83,0,0,0-.59,2.72,35.76,35.76,0,0,0-.16,3.72h1c0-1.43.05-2.64.15-3.61a10.13,10.13,0,0,1,.53-2.47,3,3,0,0,1,1-1.41,2.52,2.52,0,0,1,1.58-.45,6.52,6.52,0,0,1,1.82.3c.38.11.69.2.94.25a3.2,3.2,0,0,0,.61.1,2.68,2.68,0,0,0,1.77-.7,2.33,2.33,0,0,0,.85-1.84,2.29,2.29,0,0,0-.5-1.44,3.69,3.69,0,0,0-1.36-1,7.8,7.8,0,0,0-3.45-.81,4.81,4.81,0,0,0-3,.86A9.08,9.08,0,0,0,386.8,369l.44.28.51,0a4.35,4.35,0,0,0-.74-2.52,2.33,2.33,0,0,0-1-.74,3.73,3.73,0,0,0-1.32-.22,2.85,2.85,0,0,0-2.34,1,4.36,4.36,0,0,0-.75,2.75v13.36a3.5,3.5,0,0,0,.88,2.54,3.09,3.09,0,0,0,2.24.89,3.14,3.14,0,0,0,2.27-.88,3.39,3.39,0,0,0,.92-2.55v-4Z" transform="translate(-154.6 -312.64)"/><path class="cls-2" d="M402.19,364.09a3,3,0,0,1-1.89-.62,2.23,2.23,0,0,1,0-3.41,2.85,2.85,0,0,1,1.87-.66A3,3,0,0,1,404,360a2.05,2.05,0,0,1,.8,1.74,2.11,2.11,0,0,1-.78,1.74A2.85,2.85,0,0,1,402.19,364.09Zm2.61,5v13.87a3,3,0,0,1-.76,2.18,2.62,2.62,0,0,1-1.91.73,2.52,2.52,0,0,1-1.89-.75,3,3,0,0,1-.72-2.16V369.19a2.92,2.92,0,0,1,.72-2.15,2.57,2.57,0,0,1,1.89-.72,2.54,2.54,0,0,1,2.67,2.73Z" transform="translate(-154.6 -312.64)"/><path class="cls-2" d="M402.19,364.09v-.51a2.46,2.46,0,0,1-1.57-.51,1.56,1.56,0,0,1-.59-1.34,1.58,1.58,0,0,1,.62-1.28,2.33,2.33,0,0,1,1.54-.54,2.39,2.39,0,0,1,1.5.49,1.52,1.52,0,0,1,.59,1.33,1.6,1.6,0,0,1-.58,1.34,2.37,2.37,0,0,1-1.51.51v1a3.34,3.34,0,0,0,2.16-.73,2.63,2.63,0,0,0,1-2.14,2.56,2.56,0,0,0-1-2.15,3.48,3.48,0,0,0-2.12-.7,3.42,3.42,0,0,0-2.2.78,2.75,2.75,0,0,0,0,4.22,3.49,3.49,0,0,0,2.21.72Zm2.61,5h-.52v13.87a2.39,2.39,0,0,1-.6,1.81,2.1,2.1,0,0,1-1.55.59,2,2,0,0,1-1.52-.6,2.5,2.5,0,0,1-.58-1.8V369.19a2.41,2.41,0,0,1,.57-1.78,2,2,0,0,1,1.53-.57,2,2,0,0,1,2.15,2.21h1a3,3,0,0,0-3.18-3.24,3.07,3.07,0,0,0-2.25.87,3.41,3.41,0,0,0-.88,2.51v13.73a3.49,3.49,0,0,0,.87,2.51,3.05,3.05,0,0,0,2.26.92,3.15,3.15,0,0,0,2.27-.89,3.42,3.42,0,0,0,.91-2.54V369.05Z" transform="translate(-154.6 -312.64)"/><path class="cls-2" d="M415.12,369v.58a10.31,10.31,0,0,1,3.09-2.45,8.27,8.27,0,0,1,3.64-.78,9.11,9.11,0,0,1,4.49,1.14,8.28,8.28,0,0,1,3.24,3.34,10.79,10.79,0,0,1,1.18,5.2,11.55,11.55,0,0,1-.68,4.07,8.85,8.85,0,0,1-1.89,3.11,8.17,8.17,0,0,1-2.83,1.94,9.1,9.1,0,0,1-3.51.67,8,8,0,0,1-3.8-.82,10.61,10.61,0,0,1-2.93-2.43v7.21c0,2.11-.84,3.16-2.53,3.16a2.11,2.11,0,0,1-2-.81,4.69,4.69,0,0,1-.49-2.39v-20.7a2.82,2.82,0,0,1,.66-2.05,2.4,2.4,0,0,1,1.8-.68,2.47,2.47,0,0,1,1.83.7A2.65,2.65,0,0,1,415.12,369Zm10.35,7a7.7,7.7,0,0,0-.64-3.26,4.88,4.88,0,0,0-1.77-2.09,4.52,4.52,0,0,0-2.51-.73,4.91,4.91,0,0,0-3.68,1.56,6.43,6.43,0,0,0-1.5,4.61,6.27,6.27,0,0,0,1.49,4.45,4.84,4.84,0,0,0,3.69,1.59,4.57,4.57,0,0,0,2.44-.69,4.87,4.87,0,0,0,1.8-2.08A7.65,7.65,0,0,0,425.47,376Z" transform="translate(-154.6 -312.64)"/><path class="cls-2" d="M415.12,369h-.51v1.93l.89-1a9.83,9.83,0,0,1,2.94-2.33,7.7,7.7,0,0,1,3.41-.73,8.57,8.57,0,0,1,4.24,1.08,7.63,7.63,0,0,1,3,3.13,10.24,10.24,0,0,1,1.13,5,11.18,11.18,0,0,1-.65,3.89,8.41,8.41,0,0,1-1.78,2.94,7.53,7.53,0,0,1-2.66,1.81,8.42,8.42,0,0,1-3.31.64,7.36,7.36,0,0,1-3.56-.77,9.84,9.84,0,0,1-2.78-2.31l-.9-1v8.58a3.31,3.31,0,0,1-.52,2,1.78,1.78,0,0,1-1.5.6,2.58,2.58,0,0,1-1-.17.92.92,0,0,1-.49-.4,4.16,4.16,0,0,1-.41-2.12v-20.7a2.34,2.34,0,0,1,.51-1.69,1.85,1.85,0,0,1,1.43-.52,2,2,0,0,1,1.47.54,2.24,2.24,0,0,1,.55,1.63h1a3.21,3.21,0,0,0-.86-2.36,3,3,0,0,0-2.19-.84,2.9,2.9,0,0,0-2.17.83,3.37,3.37,0,0,0-.8,2.41v20.7a5.25,5.25,0,0,0,.55,2.65,2,2,0,0,0,1,.82,3.81,3.81,0,0,0,1.44.25,2.83,2.83,0,0,0,2.3-1,4.25,4.25,0,0,0,.75-2.69v-7.21h-.52l-.39.34a11.23,11.23,0,0,0,3.08,2.54,8.46,8.46,0,0,0,4,.89,9.62,9.62,0,0,0,3.71-.72,8.53,8.53,0,0,0,3-2.05,9.46,9.46,0,0,0,2-3.29,12.19,12.19,0,0,0,.72-4.25A11.26,11.26,0,0,0,430,370.6a8.72,8.72,0,0,0-3.44-3.55,9.69,9.69,0,0,0-4.74-1.21,8.71,8.71,0,0,0-3.86.84,10.73,10.73,0,0,0-3.25,2.57l.38.34h.52V369Zm10.35,7H426a8.07,8.07,0,0,0-.69-3.48,5.38,5.38,0,0,0-2-2.3,5.09,5.09,0,0,0-2.79-.82,5.43,5.43,0,0,0-4.05,1.73,6.91,6.91,0,0,0-1.64,5,6.78,6.78,0,0,0,1.63,4.81,5.36,5.36,0,0,0,4.06,1.75,5.08,5.08,0,0,0,2.71-.77,5.36,5.36,0,0,0,2-2.3A8.14,8.14,0,0,0,426,376h-1a7.09,7.09,0,0,1-.62,3.13,4.35,4.35,0,0,1-1.61,1.87,4,4,0,0,1-2.17.62,4.32,4.32,0,0,1-3.31-1.43,5.7,5.7,0,0,1-1.35-4.1,5.88,5.88,0,0,1,1.35-4.25,4.4,4.4,0,0,1,3.31-1.41,4,4,0,0,1,2.23.65,4.29,4.29,0,0,1,1.58,1.88,7,7,0,0,1,.59,3Z" transform="translate(-154.6 -312.64)"/><path class="cls-2" d="M435.29,366.74h.58v-2.88a17.34,17.34,0,0,1,.07-1.82,2.48,2.48,0,0,1,.37-1.13,2.31,2.31,0,0,1,.89-.8,2.69,2.69,0,0,1,1.3-.31,2.76,2.76,0,0,1,1.82.69,1.92,1.92,0,0,1,.68,1.11,9,9,0,0,1,.15,1.87v3.27h1.93a2.64,2.64,0,0,1,1.71.49,1.5,1.5,0,0,1,.59,1.24,1.37,1.37,0,0,1-.84,1.35,5.89,5.89,0,0,1-2.41.39h-1V379a14.79,14.79,0,0,0,.08,1.73,1.47,1.47,0,0,0,1.7,1.36,6.92,6.92,0,0,0,1.25-.14,7.12,7.12,0,0,1,1.24-.15,1.65,1.65,0,0,1,1.15.46,1.5,1.5,0,0,1,.51,1.15,1.94,1.94,0,0,1-1.39,1.78,10.26,10.26,0,0,1-4,.61,7.52,7.52,0,0,1-3.75-.75,3.55,3.55,0,0,1-1.67-2.09,12.72,12.72,0,0,1-.4-3.57v-9.21h-.7a2.67,2.67,0,0,1-1.74-.5,1.52,1.52,0,0,1-.6-1.24,1.49,1.49,0,0,1,.63-1.24A3,3,0,0,1,435.29,366.74Z" transform="translate(-154.6 -312.64)"/><path class="cls-2" d="M435.29,366.74v.52h1.09v-3.4c0-.76,0-1.36.07-1.77a2.08,2.08,0,0,1,.29-.9h0a1.76,1.76,0,0,1,.69-.62,2.37,2.37,0,0,1,1.06-.25,2.28,2.28,0,0,1,1.49.57,1.44,1.44,0,0,1,.51.83,9.26,9.26,0,0,1,.13,1.76v3.79h2.45a2.16,2.16,0,0,1,1.39.37,1.13,1.13,0,0,1,.27,1.39.93.93,0,0,1-.41.33,5.35,5.35,0,0,1-2.2.34h-1.5V379a12.32,12.32,0,0,0,.1,1.81,2,2,0,0,0,2.2,1.8,7.92,7.92,0,0,0,1.35-.16,6.42,6.42,0,0,1,1.14-.14,1.13,1.13,0,0,1,.81.33,1,1,0,0,1,.34.77,1.09,1.09,0,0,1-.24.71,2.13,2.13,0,0,1-.85.6,9.86,9.86,0,0,1-3.79.57,7.06,7.06,0,0,1-3.49-.68,3,3,0,0,1-1.44-1.8,12.21,12.21,0,0,1-.38-3.42v-9.73h-1.21a2.21,2.21,0,0,1-1.41-.37,1,1,0,0,1-.41-.85,1,1,0,0,1,.43-.84,2.47,2.47,0,0,1,1.51-.37v-1a3.43,3.43,0,0,0-2.14.59,2,2,0,0,0-.83,1.65,2,2,0,0,0,.79,1.64,3.18,3.18,0,0,0,2.06.61h.19v8.7a13.58,13.58,0,0,0,.41,3.71,4.1,4.1,0,0,0,1.91,2.39,7.88,7.88,0,0,0,4,.83,10.79,10.79,0,0,0,4.21-.66,3.09,3.09,0,0,0,1.24-.91,2.15,2.15,0,0,0,.46-1.34,2,2,0,0,0-.68-1.53,2.24,2.24,0,0,0-1.5-.6,7.73,7.73,0,0,0-1.33.16,6.49,6.49,0,0,1-1.16.14,1.24,1.24,0,0,1-.87-.23,1.17,1.17,0,0,1-.32-.69,13.12,13.12,0,0,1-.08-1.66v-8.31h.47a6.54,6.54,0,0,0,2.63-.43,2,2,0,0,0,.85-.73,2,2,0,0,0,.29-1.09,2.09,2.09,0,0,0-.78-1.64,3.11,3.11,0,0,0-2-.6h-1.42v-2.76a9.61,9.61,0,0,0-.16-2,2.45,2.45,0,0,0-.85-1.4,3.26,3.26,0,0,0-2.15-.8,3.36,3.36,0,0,0-1.54.36,2.84,2.84,0,0,0-1.08,1l.43.28-.43-.28a3,3,0,0,0-.45,1.36,18.68,18.68,0,0,0-.07,1.87v2.37h-.07Z" transform="translate(-154.6 -312.64)"/><path class="cls-4" d="M161.65,396.5v1.67a2.34,2.34,0,0,1-.05.52.82.82,0,0,1-.21.36,1.76,1.76,0,0,1-.38.31,5.54,5.54,0,0,1-1.28.62,4.45,4.45,0,0,1-1.35.19,3.93,3.93,0,0,1-1.55-.3,3.27,3.27,0,0,1-1.19-.9,4.13,4.13,0,0,1-.75-1.41,6.06,6.06,0,0,1-.27-1.86,6.31,6.31,0,0,1,.26-1.85,4,4,0,0,1,.75-1.43,3.31,3.31,0,0,1,1.21-.89,4,4,0,0,1,1.62-.31,3.38,3.38,0,0,1,1.32.23,2.86,2.86,0,0,1,.93.59,2.51,2.51,0,0,1,.53.75,1.72,1.72,0,0,1,.18.7.88.88,0,0,1-.2.57.67.67,0,0,1-.5.23.59.59,0,0,1-.31-.09.75.75,0,0,1-.25-.25,8.28,8.28,0,0,0-.47-.77,1.67,1.67,0,0,0-.51-.43,1.7,1.7,0,0,0-.83-.18,2,2,0,0,0-.92.21,1.94,1.94,0,0,0-.7.61,2.86,2.86,0,0,0-.44,1,5.05,5.05,0,0,0-.15,1.28,3.91,3.91,0,0,0,.59,2.34,1.94,1.94,0,0,0,1.66.83,3,3,0,0,0,1-.16,4.39,4.39,0,0,0,.92-.46v-1.41h-1.15a1.09,1.09,0,0,1-.63-.14.58.58,0,0,1-.21-.51.68.68,0,0,1,.17-.47.63.63,0,0,1,.49-.19h1.69a2,2,0,0,1,.53.06.65.65,0,0,1,.35.29A1.35,1.35,0,0,1,161.65,396.5Z" transform="translate(-154.6 -312.64)"/><path class="cls-4" d="M168.67,392.72h-3.36v2.12h3.1a.66.66,0,0,1,.51.18.7.7,0,0,1,.17.48.69.69,0,0,1-.17.48.63.63,0,0,1-.51.19h-3.1v2.46h3.48a.64.64,0,0,1,.71.7.68.68,0,0,1-.18.5.69.69,0,0,1-.53.2h-4a.86.86,0,0,1-.7-.26,1.22,1.22,0,0,1-.22-.82v-6.51a1.58,1.58,0,0,1,.1-.62.65.65,0,0,1,.3-.35,1.11,1.11,0,0,1,.52-.11h3.93a.64.64,0,0,1,.71.68.67.67,0,0,1-.18.49A.66.66,0,0,1,168.67,392.72Z" transform="translate(-154.6 -312.64)"/><path class="cls-4" d="M173.38,392.27l2.87,5.1v-5.15a1.3,1.3,0,0,1,.18-.75.57.57,0,0,1,.49-.25.58.58,0,0,1,.51.25,1.29,1.29,0,0,1,.19.75V399q0,1.14-.81,1.14a1,1,0,0,1-.36-.06.89.89,0,0,1-.3-.22,2,2,0,0,1-.26-.35l-.24-.4-2.8-5.05v5.08a1.22,1.22,0,0,1-.19.75.62.62,0,0,1-.51.25.58.58,0,0,1-.5-.25,1.22,1.22,0,0,1-.19-.75v-6.68a2,2,0,0,1,.08-.67.84.84,0,0,1,.31-.43.74.74,0,0,1,.48-.17.71.71,0,0,1,.34.07.85.85,0,0,1,.25.21,2,2,0,0,1,.23.34Z" transform="translate(-154.6 -312.64)"/><path class="cls-4" d="M184.85,392.72h-3.36v2.12h3.09a.61.61,0,0,1,.68.66.68.68,0,0,1-.16.48.64.64,0,0,1-.52.19h-3.09v2.46H185a.73.73,0,0,1,.53.19.72.72,0,0,1,.17.51.68.68,0,0,1-.17.5.69.69,0,0,1-.53.2h-4.06a.88.88,0,0,1-.7-.26A1.28,1.28,0,0,1,180,399v-6.51a1.58,1.58,0,0,1,.1-.62.68.68,0,0,1,.29-.35,1.14,1.14,0,0,1,.52-.11h3.94a.7.7,0,0,1,.53.19.68.68,0,0,1,.17.49.63.63,0,0,1-.7.68Z" transform="translate(-154.6 -312.64)"/><path class="cls-4" d="M189.61,396.32h-.52v2.78a1.34,1.34,0,0,1-.2.81.65.65,0,0,1-.54.26.63.63,0,0,1-.55-.27,1.35,1.35,0,0,1-.2-.8v-6.66a1.22,1.22,0,0,1,.22-.82.85.85,0,0,1,.69-.26h2.43a5.34,5.34,0,0,1,.86.06,1.85,1.85,0,0,1,.64.2,1.79,1.79,0,0,1,.61.49,2.14,2.14,0,0,1,.41.74,2.93,2.93,0,0,1,.14.9,2.38,2.38,0,0,1-.47,1.54,2.59,2.59,0,0,1-1.41.83,2.6,2.6,0,0,1,.76.73,7.18,7.18,0,0,1,.65,1,8,8,0,0,1,.44,1,2.42,2.42,0,0,1,.16.6.61.61,0,0,1-.1.34.72.72,0,0,1-.25.27.75.75,0,0,1-.37.09.64.64,0,0,1-.42-.13,1.34,1.34,0,0,1-.3-.36c-.08-.14-.19-.35-.33-.62l-.6-1.17a5.94,5.94,0,0,0-.57-1,1.36,1.36,0,0,0-.52-.46A1.41,1.41,0,0,0,189.61,396.32Zm.86-3.64h-1.38v2.38h1.34a2.91,2.91,0,0,0,.9-.11,1,1,0,0,0,.56-.37,1.16,1.16,0,0,0,.2-.72,1.35,1.35,0,0,0-.16-.64,1,1,0,0,0-.43-.41A2.85,2.85,0,0,0,190.47,392.68Z" transform="translate(-154.6 -312.64)"/><path class="cls-4" d="M200.47,399.05l-.35-1.09h-3l-.35,1.11a4.43,4.43,0,0,1-.36.88.5.5,0,0,1-.47.22.65.65,0,0,1-.5-.24.82.82,0,0,1-.22-.55,1.49,1.49,0,0,1,.05-.36c0-.13.09-.31.17-.53l1.88-5.62.2-.59a2.69,2.69,0,0,1,.24-.56,1,1,0,0,1,.33-.36,1,1,0,0,1,1,0,1,1,0,0,1,.33.35,2.86,2.86,0,0,1,.22.47c.06.17.13.39.22.67l1.93,5.59a3.23,3.23,0,0,1,.22.93.82.82,0,0,1-.21.55.63.63,0,0,1-.51.25.62.62,0,0,1-.31-.07l-.21-.2a3.93,3.93,0,0,1-.18-.39Zm-2.95-2.41h2.2l-1.11-3.57Z" transform="translate(-154.6 -312.64)"/><path class="cls-4" d="M208.69,392.81h-1.63v6.29a1.27,1.27,0,0,1-.2.81.64.64,0,0,1-.53.26.62.62,0,0,1-.54-.26,1.31,1.31,0,0,1-.21-.81v-6.29H204a.66.66,0,0,1-.75-.72.72.72,0,0,1,.19-.53.77.77,0,0,1,.56-.2h4.74a.68.68,0,0,1,.76.73.69.69,0,0,1-.19.52A.71.71,0,0,1,208.69,392.81Z" transform="translate(-154.6 -312.64)"/><path class="cls-4" d="M215.94,392.72h-3.36v2.12h3.1a.69.69,0,0,1,.51.18.7.7,0,0,1,.16.48.68.68,0,0,1-.16.48.63.63,0,0,1-.51.19h-3.1v2.46h3.48a.64.64,0,0,1,.71.7.68.68,0,0,1-.18.5.69.69,0,0,1-.53.2H212a.88.88,0,0,1-.7-.26,1.28,1.28,0,0,1-.21-.82v-6.51a1.58,1.58,0,0,1,.1-.62.68.68,0,0,1,.29-.35,1.14,1.14,0,0,1,.52-.11h3.94a.7.7,0,0,1,.53.19.68.68,0,0,1,.17.49.63.63,0,0,1-.7.68Z" transform="translate(-154.6 -312.64)"/><path class="cls-4" d="M225.27,391.22a3.27,3.27,0,0,1,3.21,2.1,6.1,6.1,0,0,1,.42,2.36,6.94,6.94,0,0,1-.23,1.83,4.19,4.19,0,0,1-.7,1.42,3.09,3.09,0,0,1-1.13.93,3.59,3.59,0,0,1-1.54.31,3.52,3.52,0,0,1-1.55-.32,3,3,0,0,1-1.14-.93,4.14,4.14,0,0,1-.69-1.43,7.2,7.2,0,0,1,0-3.65,4.29,4.29,0,0,1,.7-1.42,3,3,0,0,1,1.13-.89A3.45,3.45,0,0,1,225.27,391.22Zm2.12,4.45a4.6,4.6,0,0,0-.27-1.65,2.25,2.25,0,0,0-.74-1,1.82,1.82,0,0,0-1.11-.36,1.77,1.77,0,0,0-1.48.78,2.66,2.66,0,0,0-.43,1,4.87,4.87,0,0,0-.16,1.32,5.08,5.08,0,0,0,.16,1.34,2.83,2.83,0,0,0,.44,1,1.91,1.91,0,0,0,.67.58,1.72,1.72,0,0,0,.82.2,1.76,1.76,0,0,0,1.05-.34,2.23,2.23,0,0,0,.76-1A4.6,4.6,0,0,0,227.39,395.67Z" transform="translate(-154.6 -312.64)"/><path class="cls-4" d="M232.87,392.27l2.86,5.1v-5.15a1.29,1.29,0,0,1,.19-.75.57.57,0,0,1,.49-.25.58.58,0,0,1,.51.25,1.29,1.29,0,0,1,.19.75V399q0,1.14-.81,1.14a1,1,0,0,1-.36-.06.89.89,0,0,1-.3-.22,2,2,0,0,1-.26-.35l-.24-.4-2.8-5.05v5.08a1.22,1.22,0,0,1-.2.75.59.59,0,0,1-.5.25.61.61,0,0,1-.51-.25,1.29,1.29,0,0,1-.19-.75v-6.68a2.3,2.3,0,0,1,.08-.67.92.92,0,0,1,.32-.43.74.74,0,0,1,.48-.17.71.71,0,0,1,.34.07.85.85,0,0,1,.25.21,2,2,0,0,1,.22.34Z" transform="translate(-154.6 -312.64)"/><path class="cls-4" d="M244.34,392.72H241v2.12h3.09a.61.61,0,0,1,.68.66.68.68,0,0,1-.16.48.64.64,0,0,1-.52.19H241v2.46h3.48a.73.73,0,0,1,.53.19.77.77,0,0,1,.17.51.72.72,0,0,1-.17.5.69.69,0,0,1-.53.2H240.4a.87.87,0,0,1-.7-.26,1.28,1.28,0,0,1-.21-.82v-6.51a1.81,1.81,0,0,1,.09-.62.74.74,0,0,1,.3-.35,1.14,1.14,0,0,1,.52-.11h3.94a.71.71,0,0,1,.53.19.68.68,0,0,1,.17.49.67.67,0,0,1-.17.49A.67.67,0,0,1,244.34,392.72Z" transform="translate(-154.6 -312.64)"/><path class="cls-4" d="M255.21,392.81h-1.63v6.29a1.27,1.27,0,0,1-.21.81.61.61,0,0,1-.53.26.65.65,0,0,1-.54-.26,1.31,1.31,0,0,1-.21-.81v-6.29h-1.62a.71.71,0,0,1-.57-.2.69.69,0,0,1-.19-.52.72.72,0,0,1,.2-.53.75.75,0,0,1,.56-.2h4.74a.73.73,0,0,1,.57.21.71.71,0,0,1,.19.52.69.69,0,0,1-.19.52A.74.74,0,0,1,255.21,392.81Z" transform="translate(-154.6 -312.64)"/><path class="cls-4" d="M260.85,391.22a3.49,3.49,0,0,1,2,.54,3.4,3.4,0,0,1,1.24,1.56,5.92,5.92,0,0,1,.43,2.36,6.94,6.94,0,0,1-.23,1.83,4.19,4.19,0,0,1-.7,1.42,3.17,3.17,0,0,1-1.13.93,3.62,3.62,0,0,1-1.54.31,3.49,3.49,0,0,1-1.55-.32,3,3,0,0,1-1.14-.93,4,4,0,0,1-.69-1.43,6.92,6.92,0,0,1,0-3.65,4.29,4.29,0,0,1,.7-1.42,3,3,0,0,1,1.13-.89A3.45,3.45,0,0,1,260.85,391.22Zm2.11,4.45a4.61,4.61,0,0,0-.26-1.65,2.25,2.25,0,0,0-.74-1,1.84,1.84,0,0,0-1.11-.36,1.77,1.77,0,0,0-1.48.78,2.85,2.85,0,0,0-.44,1,5.32,5.32,0,0,0-.15,1.32,5.55,5.55,0,0,0,.15,1.34,3,3,0,0,0,.45,1,1.81,1.81,0,0,0,1.49.78,1.76,1.76,0,0,0,1.05-.34,2.23,2.23,0,0,0,.76-1A4.61,4.61,0,0,0,263,395.67Z" transform="translate(-154.6 -312.64)"/><path class="cls-4" d="M273.07,391.22a3.47,3.47,0,0,1,2,.54,3.42,3.42,0,0,1,1.25,1.56,6.1,6.1,0,0,1,.42,2.36,6.94,6.94,0,0,1-.23,1.83,4.19,4.19,0,0,1-.7,1.42,3.09,3.09,0,0,1-1.13.93,3.59,3.59,0,0,1-1.54.31,3.52,3.52,0,0,1-1.55-.32,3.21,3.21,0,0,1-1.14-.93,4.33,4.33,0,0,1-.69-1.43,7.2,7.2,0,0,1,0-3.65,4.12,4.12,0,0,1,.71-1.42,2.94,2.94,0,0,1,1.12-.89A3.45,3.45,0,0,1,273.07,391.22Zm2.12,4.45a4.84,4.84,0,0,0-.26-1.65,2.33,2.33,0,0,0-.75-1,1.81,1.81,0,0,0-2.59.42,2.84,2.84,0,0,0-.43,1,4.87,4.87,0,0,0-.16,1.32,5.08,5.08,0,0,0,.16,1.34,2.83,2.83,0,0,0,.44,1,1.91,1.91,0,0,0,.67.58,1.79,1.79,0,0,0,1.87-.14,2.23,2.23,0,0,0,.76-1A4.6,4.6,0,0,0,275.19,395.67Z" transform="translate(-154.6 -312.64)"/><path class="cls-4" d="M280.67,392.27l2.87,5.1v-5.15a1.3,1.3,0,0,1,.18-.75.57.57,0,0,1,.49-.25.58.58,0,0,1,.51.25,1.29,1.29,0,0,1,.19.75V399q0,1.14-.81,1.14a1,1,0,0,1-.36-.06.89.89,0,0,1-.3-.22,2,2,0,0,1-.26-.35l-.24-.4-2.8-5.05v5.08a1.16,1.16,0,0,1-.2.75.59.59,0,0,1-.5.25.58.58,0,0,1-.5-.25,1.22,1.22,0,0,1-.2-.75v-6.68a2.3,2.3,0,0,1,.08-.67.92.92,0,0,1,.32-.43.74.74,0,0,1,.48-.17.71.71,0,0,1,.34.07.85.85,0,0,1,.25.21,1.54,1.54,0,0,1,.22.34Z" transform="translate(-154.6 -312.64)"/><path class="cls-4" d="M292.14,392.72h-3.36v2.12h3.1a.65.65,0,0,1,.5.18.66.66,0,0,1,.17.48.68.68,0,0,1-.16.48.63.63,0,0,1-.51.19h-3.1v2.46h3.48a.73.73,0,0,1,.53.19.72.72,0,0,1,.17.51.68.68,0,0,1-.17.5.69.69,0,0,1-.53.2H288.2a.88.88,0,0,1-.7-.26,1.28,1.28,0,0,1-.21-.82v-6.51a1.58,1.58,0,0,1,.1-.62.68.68,0,0,1,.29-.35,1.14,1.14,0,0,1,.52-.11h3.94a.7.7,0,0,1,.53.19.68.68,0,0,1,.17.49.63.63,0,0,1-.7.68Z" transform="translate(-154.6 -312.64)"/><path class="cls-4" d="M296.61,397.59H295a.7.7,0,0,1-.55-.2.78.78,0,0,1,0-1,.68.68,0,0,1,.55-.2h1.59a.68.68,0,0,1,.55.2.69.69,0,0,1,.19.51.72.72,0,0,1-.18.51A.7.7,0,0,1,296.61,397.59Z" transform="translate(-154.6 -312.64)"/><path class="cls-4" d="M300.58,392.28v2.48h3.22v-2.48a1.37,1.37,0,0,1,.2-.8.69.69,0,0,1,1.08,0,1.27,1.27,0,0,1,.21.8v6.82a1.31,1.31,0,0,1-.21.81.65.65,0,0,1-.54.26.66.66,0,0,1-.54-.26,1.38,1.38,0,0,1-.2-.81v-2.91h-3.22v2.91a1.31,1.31,0,0,1-.21.81.69.69,0,0,1-1.08,0,1.38,1.38,0,0,1-.2-.81v-6.82a1.37,1.37,0,0,1,.2-.8.65.65,0,0,1,.54-.26.67.67,0,0,1,.54.26A1.27,1.27,0,0,1,300.58,392.28Z" transform="translate(-154.6 -312.64)"/><path class="cls-4" d="M307.66,396.45v-4.17a1.3,1.3,0,0,1,.2-.8.64.64,0,0,1,.53-.26.66.66,0,0,1,.55.26,1.29,1.29,0,0,1,.21.8v4.26a4.14,4.14,0,0,0,.14,1.21,1.39,1.39,0,0,0,.48.76,1.62,1.62,0,0,0,1,.27,1.35,1.35,0,0,0,1.23-.55,2.92,2.92,0,0,0,.37-1.65v-4.3a1.28,1.28,0,0,1,.2-.8.64.64,0,0,1,.53-.26.68.68,0,0,1,.55.26,1.27,1.27,0,0,1,.21.8v4.17a7.28,7.28,0,0,1-.17,1.69,2.61,2.61,0,0,1-.64,1.19,2.26,2.26,0,0,1-.93.64,3.42,3.42,0,0,1-1.25.2,4.55,4.55,0,0,1-1.46-.21,2.36,2.36,0,0,1-1-.67,2.92,2.92,0,0,1-.56-1.16A6.86,6.86,0,0,1,307.66,396.45Z" transform="translate(-154.6 -312.64)"/><path class="cls-4" d="M318.15,392.27l2.87,5.1v-5.15a1.22,1.22,0,0,1,.19-.75.56.56,0,0,1,.49-.25.61.61,0,0,1,.51.25,1.3,1.3,0,0,1,.18.75V399c0,.76-.27,1.14-.8,1.14a1,1,0,0,1-.36-.06.89.89,0,0,1-.3-.22,1.59,1.59,0,0,1-.26-.35c-.09-.13-.17-.26-.25-.4l-2.79-5.05v5.08a1.22,1.22,0,0,1-.2.75.64.64,0,0,1-1,0,1.22,1.22,0,0,1-.19-.75v-6.68a2.3,2.3,0,0,1,.08-.67.92.92,0,0,1,.32-.43.7.7,0,0,1,.47-.17.75.75,0,0,1,.35.07,1,1,0,0,1,.25.21,2,2,0,0,1,.22.34Z" transform="translate(-154.6 -312.64)"/><path class="cls-4" d="M325.69,391.36h1.94a4.46,4.46,0,0,1,1.3.17,2.39,2.39,0,0,1,1,.62,4.84,4.84,0,0,1,1.15,3.52,7.87,7.87,0,0,1-.12,1.43,4.49,4.49,0,0,1-.35,1.16,3.63,3.63,0,0,1-.62.92,2.52,2.52,0,0,1-.65.5,2.46,2.46,0,0,1-.76.27,5,5,0,0,1-.91.08h-1.94a1,1,0,0,1-.61-.15.63.63,0,0,1-.27-.41,3.1,3.1,0,0,1-.06-.68v-6.35a1.28,1.28,0,0,1,.21-.82A.88.88,0,0,1,325.69,391.36Zm.58,1.39v5.88h1.13l.58,0a1.93,1.93,0,0,0,.44-.12,1.05,1.05,0,0,0,.39-.27,3.53,3.53,0,0,0,.75-2.56,4.36,4.36,0,0,0-.33-1.92,1.51,1.51,0,0,0-.81-.81,3.39,3.39,0,0,0-1.17-.18Z" transform="translate(-154.6 -312.64)"/><path class="cls-4" d="M335.15,396.32h-.53v2.78a1.34,1.34,0,0,1-.2.81.65.65,0,0,1-.54.26.63.63,0,0,1-.55-.27,1.35,1.35,0,0,1-.2-.8v-6.66a1.22,1.22,0,0,1,.22-.82.85.85,0,0,1,.69-.26h2.43a5.26,5.26,0,0,1,.86.06,1.85,1.85,0,0,1,.64.2,1.79,1.79,0,0,1,.61.49,2.14,2.14,0,0,1,.41.74,2.93,2.93,0,0,1,.14.9,2.38,2.38,0,0,1-.47,1.54,2.59,2.59,0,0,1-1.41.83,2.6,2.6,0,0,1,.76.73,7.18,7.18,0,0,1,.65,1,8,8,0,0,1,.44,1,2,2,0,0,1,.16.6.69.69,0,0,1-.09.34.84.84,0,0,1-.26.27.75.75,0,0,1-.37.09.64.64,0,0,1-.42-.13,1.34,1.34,0,0,1-.3-.36c-.08-.14-.19-.35-.33-.62l-.6-1.17a5.94,5.94,0,0,0-.57-1,1.36,1.36,0,0,0-.52-.46A1.39,1.39,0,0,0,335.15,396.32Zm.85-3.64h-1.38v2.38H336a2.91,2.91,0,0,0,.9-.11,1,1,0,0,0,.56-.37,1.16,1.16,0,0,0,.2-.72,1.35,1.35,0,0,0-.16-.64,1,1,0,0,0-.43-.41A2.85,2.85,0,0,0,336,392.68Z" transform="translate(-154.6 -312.64)"/><path class="cls-4" d="M346.14,392.72h-3.36v2.12h3.1a.65.65,0,0,1,.5.18.66.66,0,0,1,.17.48.68.68,0,0,1-.16.48.63.63,0,0,1-.51.19h-3.1v2.46h3.48a.73.73,0,0,1,.53.19.72.72,0,0,1,.17.51.68.68,0,0,1-.17.5.69.69,0,0,1-.53.2H342.2a.88.88,0,0,1-.7-.26,1.28,1.28,0,0,1-.21-.82v-6.51a1.58,1.58,0,0,1,.1-.62.68.68,0,0,1,.29-.35,1.14,1.14,0,0,1,.52-.11h3.94a.7.7,0,0,1,.53.19.68.68,0,0,1,.17.49.63.63,0,0,1-.7.68Z" transform="translate(-154.6 -312.64)"/><path class="cls-4" d="M349.83,391.36h1.94a4.46,4.46,0,0,1,1.3.17,2.3,2.3,0,0,1,1,.62,4.8,4.8,0,0,1,1.16,3.52,7.87,7.87,0,0,1-.12,1.43,4.93,4.93,0,0,1-.36,1.16,3.59,3.59,0,0,1-.61.92,2.52,2.52,0,0,1-.65.5,2.55,2.55,0,0,1-.76.27,5,5,0,0,1-.91.08h-1.94a1,1,0,0,1-.62-.15.71.71,0,0,1-.27-.41,3.1,3.1,0,0,1-.06-.68v-6.35a1.22,1.22,0,0,1,.22-.82A.86.86,0,0,1,349.83,391.36Zm.57,1.39v5.88h1.13l.59,0a1.86,1.86,0,0,0,.43-.12,1.18,1.18,0,0,0,.4-.27,3.57,3.57,0,0,0,.74-2.56,4.36,4.36,0,0,0-.33-1.92,1.48,1.48,0,0,0-.81-.81,3.33,3.33,0,0,0-1.16-.18Z" transform="translate(-154.6 -312.64)"/><path class="cls-4" d="M365.8,398.66l-1.19-5.19-1.2,5.19c-.09.4-.17.68-.22.85a1.32,1.32,0,0,1-.29.46.73.73,0,0,1-.55.2.83.83,0,0,1-.46-.12.87.87,0,0,1-.28-.34,2.18,2.18,0,0,1-.19-.53c0-.2-.08-.39-.12-.56l-1.23-5.83A4.3,4.3,0,0,1,360,392a.79.79,0,0,1,.21-.56.59.59,0,0,1,.49-.23.55.55,0,0,1,.55.3,5,5,0,0,1,.25.9l1,5.05,1.08-4.73c.08-.36.15-.64.21-.83a1.3,1.3,0,0,1,.32-.49.83.83,0,0,1,.58-.2.79.79,0,0,1,.59.21,1.31,1.31,0,0,1,.29.47q.08.25.21.84l1.09,4.73,1-5.05a5.33,5.33,0,0,1,.13-.62,1,1,0,0,1,.22-.41.57.57,0,0,1,.44-.17.65.65,0,0,1,.5.22.88.88,0,0,1,.2.57,4.67,4.67,0,0,1-.11.78l-1.23,5.83c-.08.39-.15.68-.2.87a1.19,1.19,0,0,1-.29.48.86.86,0,0,1-1.1,0,1,1,0,0,1-.29-.45C366,399.35,365.9,399.07,365.8,398.66Z" transform="translate(-154.6 -312.64)"/><path class="cls-4" d="M371.05,399.1v-6.82a1.37,1.37,0,0,1,.2-.8.69.69,0,0,1,1.08,0,1.27,1.27,0,0,1,.21.8v6.82a1.31,1.31,0,0,1-.21.81.65.65,0,0,1-.54.26.65.65,0,0,1-.53-.26A1.31,1.31,0,0,1,371.05,399.1Z" transform="translate(-154.6 -312.64)"/><path class="cls-4" d="M379.74,392.81h-1.63v6.29a1.34,1.34,0,0,1-.2.81.64.64,0,0,1-.53.26.62.62,0,0,1-.54-.26,1.31,1.31,0,0,1-.21-.81v-6.29H375a.66.66,0,0,1-.75-.72.72.72,0,0,1,.19-.53.77.77,0,0,1,.56-.2h4.74a.68.68,0,0,1,.76.73.69.69,0,0,1-.19.52A.71.71,0,0,1,379.74,392.81Z" transform="translate(-154.6 -312.64)"/><path class="cls-4" d="M383.64,392.28v2.48h3.22v-2.48a1.37,1.37,0,0,1,.2-.8.69.69,0,0,1,1.08,0,1.27,1.27,0,0,1,.21.8v6.82a1.31,1.31,0,0,1-.21.81.65.65,0,0,1-.54.26.67.67,0,0,1-.54-.26,1.38,1.38,0,0,1-.2-.81v-2.91h-3.22v2.91a1.31,1.31,0,0,1-.21.81.65.65,0,0,1-.54.26.66.66,0,0,1-.54-.26,1.38,1.38,0,0,1-.2-.81v-6.82a1.37,1.37,0,0,1,.2-.8.65.65,0,0,1,.54-.26.67.67,0,0,1,.54.26A1.27,1.27,0,0,1,383.64,392.28Z" transform="translate(-154.6 -312.64)"/><path class="cls-4" d="M398.31,392.28v4.54a9.53,9.53,0,0,1,0,1,3.66,3.66,0,0,1-.2.84,2.19,2.19,0,0,1-.82,1.12,2.48,2.48,0,0,1-1.41.39,2.6,2.6,0,0,1-1.25-.27,2,2,0,0,1-.8-.9,3.76,3.76,0,0,1-.27-.76,4.16,4.16,0,0,1-.1-.82.94.94,0,0,1,.2-.64.67.67,0,0,1,.5-.22.52.52,0,0,1,.45.21,1.46,1.46,0,0,1,.23.62,6.26,6.26,0,0,0,.17.73,1,1,0,0,0,.29.46.77.77,0,0,0,.57.2q1,0,1-1.71v-4.79a1.3,1.3,0,0,1,.2-.8.65.65,0,0,1,.54-.26.68.68,0,0,1,.55.26A1.37,1.37,0,0,1,398.31,392.28Z" transform="translate(-154.6 -312.64)"/><path class="cls-4" d="M406.27,397.43a2.88,2.88,0,0,1-.34,1.41,2.45,2.45,0,0,1-1,1,3.22,3.22,0,0,1-1.57.35,3.13,3.13,0,0,1-1.8-.48,2.63,2.63,0,0,1-.81-.93,2.4,2.4,0,0,1-.32-1.13.87.87,0,0,1,.19-.55.62.62,0,0,1,.48-.23.52.52,0,0,1,.4.18,1.45,1.45,0,0,1,.28.53,3.75,3.75,0,0,0,.3.69,1.35,1.35,0,0,0,.46.46,1.5,1.5,0,0,0,.78.18,1.56,1.56,0,0,0,1.08-.37,1.16,1.16,0,0,0,.41-.9,1,1,0,0,0-.22-.7,1.47,1.47,0,0,0-.58-.42c-.24-.09-.55-.19-.95-.3a5.51,5.51,0,0,1-1.32-.51,2.23,2.23,0,0,1-.85-.79,2.36,2.36,0,0,1-.32-1.26,2.43,2.43,0,0,1,.33-1.27,2.2,2.2,0,0,1,1-.85,3.4,3.4,0,0,1,1.48-.3,3,3,0,0,1,1.17.2,2.26,2.26,0,0,1,.82.52,2.16,2.16,0,0,1,.48.69,1.8,1.8,0,0,1,.15.7.91.91,0,0,1-.19.57.57.57,0,0,1-.47.25.5.5,0,0,1-.39-.15,2.32,2.32,0,0,1-.28-.5,2.32,2.32,0,0,0-.49-.76,1.26,1.26,0,0,0-.9-.28,1.37,1.37,0,0,0-.93.3.91.91,0,0,0-.36.72.84.84,0,0,0,.12.45,1,1,0,0,0,.34.32,2.12,2.12,0,0,0,.42.22l.72.22a10.43,10.43,0,0,1,1.12.38,3.09,3.09,0,0,1,.86.5,2,2,0,0,1,.55.75A2.62,2.62,0,0,1,406.27,397.43Z" transform="translate(-154.6 -312.64)"/></svg>