<svg xmlns="http://www.w3.org/2000/svg" viewBox="0 0 292.99 87.53"><defs><style>.cls-1{fill:#df9046;}.cls-2{fill:#2c5a86;}.cls-3{fill:#fff;}.cls-4{fill:#28689d;}</style></defs><g id="Layer_2" data-name="Layer 2"><g id="Layer_1-2" data-name="Layer 1"><path class="cls-1" d="M0,74.81c0-1.23,0-2.45.09-3.67s.15-2.45.27-3.67S.63,65,.81,63.83s.39-2.42.63-3.62.5-2.39.8-3.58.63-2.37,1-3.54S4,50.76,4.37,49.61s.86-2.3,1.32-3.43,1-2.25,1.49-3.36,1.08-2.2,1.65-3.28S10,37.4,10.64,36.35s1.29-2.09,2-3.1,1.38-2,2.11-3S16.2,28.3,17,27.35s1.58-1.87,2.4-2.78,1.66-1.79,2.53-2.66,1.75-1.71,2.66-2.53,1.83-1.62,2.78-2.4,1.91-1.53,2.89-2.26,2-1.43,3-2.11,2-1.34,3.1-2,2.11-1.23,3.19-1.81,2.18-1.12,3.28-1.65,2.23-1,3.36-1.49,2.27-.9,3.43-1.32,2.31-.79,3.48-1.15,2.35-.68,3.54-1,2.38-.56,3.58-.8S62.62,1,63.83.81,66.26.48,67.47.36,69.91.15,71.14.09,73.58,0,74.81,0s2.44,0,3.67.09,2.44.15,3.66.27,2.43.27,3.64.45,2.42.39,3.62.63,2.4.5,3.58.8,2.37.63,3.54,1S98.86,4,100,4.37s2.29.86,3.42,1.32,2.25,1,3.36,1.49,2.2,1.08,3.28,1.65,2.15,1.18,3.19,1.81,2.09,1.29,3.11,2,2,1.38,3,2.11,1.95,1.48,2.89,2.26,1.88,1.58,2.78,2.4,1.8,1.66,2.66,2.53,1.71,1.75,2.53,2.66,1.63,1.83,2.4,2.78,1.53,1.91,2.26,2.89,1.44,2,2.12,3,1.33,2,2,3.1,1.23,2.11,1.81,3.19,1.13,2.18,1.65,3.28,1,2.23,1.49,3.36.91,2.27,1.32,3.43.8,2.31,1.15,3.48.68,2.35,1,3.54.57,2.38.81,3.58.44,2.41.62,3.62.33,2.43.45,3.64.21,2.44.27,3.67.09,2.44.09,3.67H122.68a46.08,46.08,0,0,0-.23-4.7A47.94,47.94,0,0,0,119,56.49q-.9-2.18-2-4.25a45.72,45.72,0,0,0-2.42-4c-.87-1.31-1.8-2.56-2.79-3.78s-2-2.37-3.16-3.48-2.27-2.16-3.48-3.15A45,45,0,0,0,101.4,35q-2-1.3-4-2.42a45.63,45.63,0,0,0-4.25-2Q91,29.68,88.7,29c-1.5-.45-3-.83-4.55-1.14a45.73,45.73,0,0,0-4.65-.69c-1.56-.15-3.13-.23-4.69-.23s-3.14.08-4.7.23a45.12,45.12,0,0,0-4.64.69q-2.31.46-4.56,1.14c-1.5.46-3,1-4.42,1.59a44.46,44.46,0,0,0-4.25,2c-1.38.74-2.73,1.55-4,2.42a46.7,46.7,0,0,0-3.78,2.8Q42.61,39.28,41,41T37.8,44.43A46.7,46.7,0,0,0,35,48.21c-.87,1.3-1.68,2.65-2.42,4s-1.41,2.8-2,4.25S29.45,59.41,29,60.91s-.83,3-1.14,4.56a45.12,45.12,0,0,0-.69,4.64c-.15,1.56-.23,3.13-.23,4.7Z"/><path class="cls-2" d="M81.29,71.05a6.61,6.61,0,0,1-.85,1.19,7.78,7.78,0,0,1-1.06,1,7.69,7.69,0,0,1-1.25.78,7.3,7.3,0,0,1-1.37.52,7,7,0,0,1-1.44.24,8,8,0,0,1-1.47,0,8.72,8.72,0,0,1-1.43-.33,7.68,7.68,0,0,1-1.34-.61A7,7,0,0,1,69.89,73a7.78,7.78,0,0,1-1-1.06,7,7,0,0,1-.77-1.25,6.89,6.89,0,0,1-.52-1.37,7.85,7.85,0,0,1-.25-1.45,7.14,7.14,0,0,1,0-1.46,7.06,7.06,0,0,1,.33-1.43,6.7,6.7,0,0,1,.6-1.34L103,15.2a1.63,1.63,0,0,1,.39-.44,1.59,1.59,0,0,1,.52-.26,1.63,1.63,0,0,1,.58,0,1.55,1.55,0,0,1,.56.19,1.61,1.61,0,0,1,.44.38,1.54,1.54,0,0,1,.26.53,1.61,1.61,0,0,1,0,.58,1.5,1.5,0,0,1-.19.55Z"/><rect class="cls-3" x="101.27" y="51.35" width="83.93" height="33.79"/><path class="cls-2" d="M108.23,49.71v13.5a22.74,22.74,0,0,1-.17,3,9,9,0,0,1-.74,2.5A7,7,0,0,1,104.13,72a11.42,11.42,0,0,1-5.42,1.19,12.19,12.19,0,0,1-4.8-.83,6.86,6.86,0,0,1-3.11-2.67,9.27,9.27,0,0,1-1-2.27A8.37,8.37,0,0,1,89.41,65a2.32,2.32,0,0,1,.76-1.88,2.85,2.85,0,0,1,1.93-.65,2.29,2.29,0,0,1,1.72.6,4,4,0,0,1,.89,1.86,16,16,0,0,0,.66,2.16,3.25,3.25,0,0,0,1.1,1.39,3.6,3.6,0,0,0,2.2.58q3.81,0,3.81-5.08V49.71a3.31,3.31,0,0,1,.77-2.38,2.78,2.78,0,0,1,2.08-.79,2.85,2.85,0,0,1,2.11.79A3.23,3.23,0,0,1,108.23,49.71Z"/><path class="cls-2" d="M108.23,49.71h-.52v13.5a21.85,21.85,0,0,1-.16,2.92,8.23,8.23,0,0,1-.7,2.35h0a6.48,6.48,0,0,1-3,3.07,10.86,10.86,0,0,1-5.17,1.13,11.62,11.62,0,0,1-4.6-.79,6.28,6.28,0,0,1-2.87-2.47h0a8.76,8.76,0,0,1-.95-2.14,8.18,8.18,0,0,1-.36-2.3,1.82,1.82,0,0,1,.57-1.49A2.4,2.4,0,0,1,92.1,63a1.76,1.76,0,0,1,1.35.45A3.48,3.48,0,0,1,94.21,65a16.7,16.7,0,0,0,.68,2.24,3.78,3.78,0,0,0,1.27,1.6,4.16,4.16,0,0,0,2.51.69,3.89,3.89,0,0,0,3.27-1.48A6.73,6.73,0,0,0,103,64V49.71a2.78,2.78,0,0,1,.62-2,2.19,2.19,0,0,1,1.71-.63,2.34,2.34,0,0,1,1.75.63,2.78,2.78,0,0,1,.63,2h1a3.76,3.76,0,0,0-.93-2.74,3.34,3.34,0,0,0-2.48-.94,3.25,3.25,0,0,0-2.45.95,3.75,3.75,0,0,0-.91,2.73V64a5.83,5.83,0,0,1-.85,3.5,2.82,2.82,0,0,1-2.45,1.07,3.16,3.16,0,0,1-1.89-.48,2.81,2.81,0,0,1-.94-1.17,15.19,15.19,0,0,1-.63-2.09,4.5,4.5,0,0,0-1-2.1,2.76,2.76,0,0,0-2.09-.75,3.34,3.34,0,0,0-2.27.77A2.86,2.86,0,0,0,88.9,65a9,9,0,0,0,.41,2.59A9.91,9.91,0,0,0,90.37,70h0a7.39,7.39,0,0,0,3.33,2.87,12.86,12.86,0,0,0,5,.86,11.88,11.88,0,0,0,5.66-1.24,7.55,7.55,0,0,0,3.42-3.56h0a9.16,9.16,0,0,0,.79-2.64,22.4,22.4,0,0,0,.17-3.05V49.71Z"/><path class="cls-2" d="M127.42,70.48a16.35,16.35,0,0,1-3.71,2,11.28,11.28,0,0,1-4,.68,8.22,8.22,0,0,1-3.57-.73,5.72,5.72,0,0,1-2.36-2,4.73,4.73,0,0,1-.84-2.7,4.57,4.57,0,0,1,1.38-3.36,7,7,0,0,1,3.77-1.86c.33-.08,1.16-.23,2.49-.48s2.47-.47,3.41-.68,2-.45,3.09-.74a4.76,4.76,0,0,0-.84-2.79c-.5-.59-1.53-.89-3.09-.89a6.93,6.93,0,0,0-3,.51A4.69,4.69,0,0,0,118.38,59c-.49.68-.83,1.13-1,1.35a1.83,1.83,0,0,1-1.28.32,2.35,2.35,0,0,1-1.54-.52,1.61,1.61,0,0,1-.65-1.32,3.8,3.8,0,0,1,1-2.46,7,7,0,0,1,3.07-2,15,15,0,0,1,5.2-.78,16.07,16.07,0,0,1,5.48.75,5,5,0,0,1,2.81,2.36,9.5,9.5,0,0,1,.82,4.29c0,1.13,0,2.08,0,2.87s0,1.66,0,2.62a8.84,8.84,0,0,0,.5,2.82,8.7,8.7,0,0,1,.49,1.89,1.72,1.72,0,0,1-.77,1.34,2.65,2.65,0,0,1-1.73.61,2.44,2.44,0,0,1-1.6-.69A10.58,10.58,0,0,1,127.42,70.48Zm-.35-6.94a28.54,28.54,0,0,1-3.38.82q-2.2.42-3.06.63a4.21,4.21,0,0,0-1.62.79,1.94,1.94,0,0,0-.78,1.64,2.37,2.37,0,0,0,.91,1.86,3.58,3.58,0,0,0,2.38.76,6.64,6.64,0,0,0,2.89-.62,4.44,4.44,0,0,0,1.94-1.61,6.75,6.75,0,0,0,.72-3.59Z"/><path class="cls-2" d="M127.42,70.48l-.3-.42a15.75,15.75,0,0,1-3.59,2,10.64,10.64,0,0,1-3.83.65,7.88,7.88,0,0,1-3.35-.68,5.25,5.25,0,0,1-2.16-1.8,4.28,4.28,0,0,1-.74-2.42,4.07,4.07,0,0,1,1.22-3,6.54,6.54,0,0,1,3.51-1.72h0c.33-.07,1.16-.23,2.49-.47s2.47-.48,3.42-.68,2-.46,3.11-.76l.4-.1,0-.42a5.14,5.14,0,0,0-1-3.09,2.78,2.78,0,0,0-1.39-.83,9.51,9.51,0,0,0-5.34.32A5.19,5.19,0,0,0,118,58.72a14.68,14.68,0,0,1-1,1.3.59.59,0,0,1-.21.09,2.92,2.92,0,0,1-.69.07,1.85,1.85,0,0,1-1.22-.41,1.08,1.08,0,0,1-.45-.92,3.31,3.31,0,0,1,.86-2.14,6.56,6.56,0,0,1,2.86-1.81,14.53,14.53,0,0,1,5-.74,15.82,15.82,0,0,1,5.3.71A4.41,4.41,0,0,1,131,57a8.94,8.94,0,0,1,.77,4c0,1.13,0,2.08,0,2.86s0,1.66,0,2.62h0a9.17,9.17,0,0,0,.52,3c.16.48.28.88.36,1.18a2,2,0,0,1,.1.55,1.18,1.18,0,0,1-.57.94,2.19,2.19,0,0,1-1.41.5,2,2,0,0,1-1.26-.57,10.27,10.27,0,0,1-1.6-1.91l-.29-.44-.43.3.3.42-.43.29a10.76,10.76,0,0,0,1.77,2.11,3,3,0,0,0,1.94.82,3.18,3.18,0,0,0,2.05-.71,2.22,2.22,0,0,0,1-1.75,3.06,3.06,0,0,0-.14-.81c-.08-.34-.21-.75-.38-1.24a8.46,8.46,0,0,1-.46-2.66h0c0-1,0-1.83,0-2.62V61a10,10,0,0,0-.87-4.52,5.49,5.49,0,0,0-3.09-2.61,16.57,16.57,0,0,0-5.66-.78,15.72,15.72,0,0,0-5.38.8,7.59,7.59,0,0,0-3.29,2.13,4.38,4.38,0,0,0-1.1,2.79,2.14,2.14,0,0,0,.84,1.72,2.92,2.92,0,0,0,1.86.64,3.87,3.87,0,0,0,.94-.1,1.46,1.46,0,0,0,.72-.39,15.85,15.85,0,0,0,1.07-1.4A4.19,4.19,0,0,1,120.35,58a6.45,6.45,0,0,1,2.79-.45,6.67,6.67,0,0,1,1.8.2,1.78,1.78,0,0,1,.89.5,4.21,4.21,0,0,1,.73,2.48l.51,0-.13-.5c-1.1.29-2.13.54-3.06.74s-2.08.43-3.4.68l-2.51.47.11.51-.1-.51a7.56,7.56,0,0,0-4,2,5.15,5.15,0,0,0-1.52,3.72,5.3,5.3,0,0,0,.92,3,6.2,6.2,0,0,0,2.57,2.15,8.71,8.71,0,0,0,3.79.78,11.72,11.72,0,0,0,4.2-.71,17.25,17.25,0,0,0,3.81-2.09l-.29-.42-.43.29Zm-.35-6.94-.16-.49a27,27,0,0,1-3.31.8c-1.48.29-2.51.5-3.09.64a4.87,4.87,0,0,0-1.82.88,2.48,2.48,0,0,0-1,2,2.85,2.85,0,0,0,1.09,2.25,4.1,4.1,0,0,0,2.71.89,7.22,7.22,0,0,0,3.11-.68,4.91,4.91,0,0,0,2.16-1.8l-.44-.27.43.28a7.16,7.16,0,0,0,.8-3.87V62.83l-.67.22.16.49h-.52v.68a6.25,6.25,0,0,1-.63,3.31h0A3.93,3.93,0,0,1,124.19,69a6,6,0,0,1-2.67.58,3.1,3.1,0,0,1-2-.64,1.81,1.81,0,0,1-.72-1.47,1.42,1.42,0,0,1,.57-1.23,3.73,3.73,0,0,1,1.43-.7c.55-.13,1.57-.34,3-.63a29.24,29.24,0,0,0,3.44-.83l-.16-.49h0Z"/><path class="cls-2" d="M141.33,56.67l4.27,10.89,4.6-11.37a6.73,6.73,0,0,1,1.07-1.94,2,2,0,0,1,1.58-.57,2.51,2.51,0,0,1,1.71.61,1.83,1.83,0,0,1,.71,1.43,2.51,2.51,0,0,1-.13.74,6.14,6.14,0,0,1-.29.79c-.1.24-.23.52-.37.84l-5.07,11.43c-.14.32-.32.74-.55,1.24a6.85,6.85,0,0,1-.75,1.3,3,3,0,0,1-1,.83,3.31,3.31,0,0,1-1.48.3,3.11,3.11,0,0,1-1.79-.47,3.24,3.24,0,0,1-1-1c-.21-.36-.57-1.09-1.08-2.18l-5-11.31-.36-.84a6.8,6.8,0,0,1-.31-.86,3,3,0,0,1-.13-.76,1.69,1.69,0,0,1,.33-1,2.42,2.42,0,0,1,.91-.79,2.61,2.61,0,0,1,1.26-.31,2.11,2.11,0,0,1,1.81.68A10.52,10.52,0,0,1,141.33,56.67Z"/><path class="cls-2" d="M141.33,56.67l-.48.18L145.59,69l5.09-12.57h0a6,6,0,0,1,1-1.78,1.53,1.53,0,0,1,1.2-.41,2,2,0,0,1,1.38.49,1.36,1.36,0,0,1,.53,1,2,2,0,0,1-.11.59,6.93,6.93,0,0,1-.27.73c-.1.24-.23.52-.37.84l-5.07,11.43h0c-.14.33-.32.74-.55,1.24a5.49,5.49,0,0,1-.69,1.19,2.43,2.43,0,0,1-.84.69,2.82,2.82,0,0,1-1.26.25,2.56,2.56,0,0,1-1.49-.38,2.8,2.8,0,0,1-.84-.85c-.19-.34-.55-1.07-1.05-2.15l-.47.22.47-.21L137.2,58l-.47.21.47-.19c-.11-.29-.24-.57-.36-.86a7.47,7.47,0,0,1-.29-.79,2.51,2.51,0,0,1-.1-.62,1.13,1.13,0,0,1,.24-.68,1.94,1.94,0,0,1,.72-.63,2.11,2.11,0,0,1,1-.25,2.6,2.6,0,0,1,.93.14,1.05,1.05,0,0,1,.46.33,10.23,10.23,0,0,1,1,2.18h0l.48-.18.48-.18a10.87,10.87,0,0,0-1.16-2.43,2,2,0,0,0-.93-.69,3.71,3.71,0,0,0-1.29-.21,3.23,3.23,0,0,0-1.5.37,3,3,0,0,0-1.09,1,2.21,2.21,0,0,0-.42,1.26,3.08,3.08,0,0,0,.15.9,7.77,7.77,0,0,0,.33.92c.12.28.24.56.35.84h0l5,11.31h0c.5,1.1.86,1.83,1.09,2.23a3.89,3.89,0,0,0,1.14,1.19,3.65,3.65,0,0,0,2.08.55,3.9,3.9,0,0,0,1.71-.35,3.35,3.35,0,0,0,1.2-1,6.7,6.7,0,0,0,.82-1.4c.23-.5.41-.92.55-1.25h0L155,58.3h0l.37-.84a7.28,7.28,0,0,0,.32-.86,3.16,3.16,0,0,0,.14-.88,2.32,2.32,0,0,0-.88-1.81,3,3,0,0,0-2.05-.75,2.59,2.59,0,0,0-2,.74,7,7,0,0,0-1.16,2.1h0l-4.12,10.18-3.8-9.7-.48.19.48-.18Z"/><path class="cls-2" d="M172.4,70.48a16.3,16.3,0,0,1-3.7,2,11.28,11.28,0,0,1-4,.68,8.16,8.16,0,0,1-3.57-.73,5.69,5.69,0,0,1-2.37-2,4.8,4.8,0,0,1-.83-2.7,4.6,4.6,0,0,1,1.37-3.36,7,7,0,0,1,3.77-1.86c.34-.08,1.17-.23,2.5-.48s2.46-.47,3.41-.68,2-.45,3.08-.74a4.62,4.62,0,0,0-.84-2.79c-.49-.59-1.52-.89-3.08-.89a7,7,0,0,0-3,.51A4.85,4.85,0,0,0,163.36,59a16.72,16.72,0,0,1-1,1.35,1.84,1.84,0,0,1-1.29.32,2.39,2.39,0,0,1-1.54-.52,1.6,1.6,0,0,1-.64-1.32,3.84,3.84,0,0,1,1-2.46,7,7,0,0,1,3.08-2,15,15,0,0,1,5.2-.78,16,16,0,0,1,5.47.75,4.92,4.92,0,0,1,2.81,2.36,9.49,9.49,0,0,1,.83,4.29c0,1.13,0,2.08,0,2.87s0,1.66,0,2.62a8.82,8.82,0,0,0,.49,2.82,8.12,8.12,0,0,1,.49,1.89,1.7,1.7,0,0,1-.76,1.34,2.69,2.69,0,0,1-1.73.61,2.46,2.46,0,0,1-1.61-.69A11.38,11.38,0,0,1,172.4,70.48Zm-.35-6.94a28.28,28.28,0,0,1-3.37.82q-2.22.42-3.06.63a4.32,4.32,0,0,0-1.63.79,2,2,0,0,0-.77,1.64,2.34,2.34,0,0,0,.91,1.86,3.53,3.53,0,0,0,2.37.76,6.68,6.68,0,0,0,2.9-.62,4.44,4.44,0,0,0,1.94-1.61,6.77,6.77,0,0,0,.71-3.59Z"/><path class="cls-2" d="M172.4,70.48l-.29-.42a16,16,0,0,1-3.59,2,10.68,10.68,0,0,1-3.83.65,7.85,7.85,0,0,1-3.35-.68,5.18,5.18,0,0,1-2.16-1.8,4.37,4.37,0,0,1-.75-2.42,4.08,4.08,0,0,1,1.23-3,6.54,6.54,0,0,1,3.5-1.72h0c.32-.07,1.16-.23,2.48-.47s2.47-.48,3.43-.68,2-.46,3.11-.76l.4-.1,0-.42a5.21,5.21,0,0,0-1-3.09,2.81,2.81,0,0,0-1.4-.83,9.51,9.51,0,0,0-5.34.32,5.35,5.35,0,0,0-1.93,1.69,15.34,15.34,0,0,1-1,1.3.59.59,0,0,1-.22.09,2.86,2.86,0,0,1-.69.07,1.85,1.85,0,0,1-1.21-.41,1.09,1.09,0,0,1-.46-.92,3.33,3.33,0,0,1,.87-2.14,6.56,6.56,0,0,1,2.86-1.81,14.53,14.53,0,0,1,5-.74,15.76,15.76,0,0,1,5.29.71A4.41,4.41,0,0,1,176,57a9.09,9.09,0,0,1,.76,4c0,1.13,0,2.08,0,2.86s0,1.66,0,2.62h0a9.45,9.45,0,0,0,.52,3,11.6,11.6,0,0,1,.36,1.18,3,3,0,0,1,.11.55,1.21,1.21,0,0,1-.57.94,2.21,2.21,0,0,1-1.41.5,2,2,0,0,1-1.27-.57,9.9,9.9,0,0,1-1.59-1.91l-.3-.44-.42.3.29.42-.42.29a10.76,10.76,0,0,0,1.77,2.11,2.93,2.93,0,0,0,1.94.82,3.2,3.2,0,0,0,2.05-.71,2.25,2.25,0,0,0,1-1.75,4.17,4.17,0,0,0-.14-.81c-.09-.34-.22-.75-.38-1.24a8.21,8.21,0,0,1-.47-2.66h0c0-1,0-1.83,0-2.62s0-1.74,0-2.87a10,10,0,0,0-.88-4.52,5.46,5.46,0,0,0-3.09-2.61,16.51,16.51,0,0,0-5.65-.78,15.68,15.68,0,0,0-5.38.8,7.53,7.53,0,0,0-3.29,2.13,4.34,4.34,0,0,0-1.11,2.79,2.14,2.14,0,0,0,.84,1.72,2.94,2.94,0,0,0,1.86.64,3.76,3.76,0,0,0,.94-.1,1.49,1.49,0,0,0,.73-.39c.23-.26.57-.71,1.06-1.4A4.26,4.26,0,0,1,165.33,58a6.5,6.5,0,0,1,2.8-.45,6.67,6.67,0,0,1,1.8.2,1.78,1.78,0,0,1,.89.5,4.22,4.22,0,0,1,.72,2.48l.51,0-.13-.5c-1.1.29-2.12.54-3.06.74s-2.07.43-3.4.68-2.16.4-2.5.47l.1.51-.1-.51a7.53,7.53,0,0,0-4,2,5.07,5.07,0,0,0-1.52,3.72,5.29,5.29,0,0,0,.91,3,6.17,6.17,0,0,0,2.58,2.15,8.65,8.65,0,0,0,3.79.78,11.7,11.7,0,0,0,4.19-.71,17.53,17.53,0,0,0,3.82-2.09l-.3-.42-.42.29Zm-.35-6.94-.16-.49a26.06,26.06,0,0,1-3.31.8c-1.48.29-2.5.5-3.08.64a4.73,4.73,0,0,0-1.82.88,2.48,2.48,0,0,0-1,2,2.88,2.88,0,0,0,1.09,2.25,4.13,4.13,0,0,0,2.71.89,7.19,7.19,0,0,0,3.11-.68,4.86,4.86,0,0,0,2.16-1.8l-.43-.27.43.28a7.25,7.25,0,0,0,.8-3.87V62.83l-.68.22.16.49h-.51v.68a6.46,6.46,0,0,1-.63,3.31h0A4,4,0,0,1,169.18,69a6.11,6.11,0,0,1-2.68.58,3.07,3.07,0,0,1-2-.64,1.85,1.85,0,0,1-.73-1.47,1.42,1.42,0,0,1,.57-1.23,3.8,3.8,0,0,1,1.43-.7c.56-.13,1.58-.34,3.05-.63a29.24,29.24,0,0,0,3.44-.83l-.17-.49h0Z"/><path class="cls-2" d="M199.58,66.91a5.58,5.58,0,0,1-1.06,3.41,6.53,6.53,0,0,1-3.15,2.14,15.22,15.22,0,0,1-5.05.73,13.42,13.42,0,0,1-4.88-.79,7.1,7.1,0,0,1-3-2,3.73,3.73,0,0,1-1-2.38,1.76,1.76,0,0,1,.62-1.35,2.21,2.21,0,0,1,1.57-.57,2,2,0,0,1,1.27.37,4,4,0,0,1,.85,1,5.5,5.5,0,0,0,2,1.92,6.34,6.34,0,0,0,3.08.63,4.86,4.86,0,0,0,2.6-.64,1.8,1.8,0,0,0,1-1.47,2,2,0,0,0-1.06-1.85,14.15,14.15,0,0,0-3.47-1.1,29.57,29.57,0,0,1-4.44-1.3,7.24,7.24,0,0,1-2.73-1.78,3.84,3.84,0,0,1-1-2.72,4.53,4.53,0,0,1,.95-2.73,6.44,6.44,0,0,1,2.79-2.05,11.65,11.65,0,0,1,4.46-.76,16.45,16.45,0,0,1,3.68.38,9.92,9.92,0,0,1,2.73,1A5.58,5.58,0,0,1,198,56.54a2.68,2.68,0,0,1,.57,1.55,1.71,1.71,0,0,1-.6,1.35,2.55,2.55,0,0,1-1.74.53,2.26,2.26,0,0,1-1.38-.42,8.34,8.34,0,0,1-1.3-1.27,4.63,4.63,0,0,0-1.41-1.12,4.89,4.89,0,0,0-2.21-.42,4.66,4.66,0,0,0-2.38.55,1.6,1.6,0,0,0-.94,1.38,1.46,1.46,0,0,0,.69,1.24,6.13,6.13,0,0,0,1.88.8c.78.21,1.87.47,3.25.77a19.27,19.27,0,0,1,4,1.3,6.61,6.61,0,0,1,2.36,1.79A3.73,3.73,0,0,1,199.58,66.91Z"/><path class="cls-2" d="M199.58,66.91h-.51a5,5,0,0,1-1,3.1,6,6,0,0,1-2.9,2,14.87,14.87,0,0,1-4.88.7,12.9,12.9,0,0,1-4.69-.76,6.64,6.64,0,0,1-2.78-1.82A3.3,3.3,0,0,1,182,68a1.23,1.23,0,0,1,.46-1,1.65,1.65,0,0,1,1.22-.43,1.45,1.45,0,0,1,.94.25,3.66,3.66,0,0,1,.74.91h0a5.9,5.9,0,0,0,2.13,2.09,6.69,6.69,0,0,0,3.33.7,5.38,5.38,0,0,0,2.88-.72,3,3,0,0,0,.9-.83A1.82,1.82,0,0,0,195,68a2.68,2.68,0,0,0-.33-1.35,2.52,2.52,0,0,0-1-1A14.38,14.38,0,0,0,190,64.51h0a30.83,30.83,0,0,1-4.36-1.26,7,7,0,0,1-2.55-1.66,3.33,3.33,0,0,1-.88-2.37,4,4,0,0,1,.84-2.42,5.86,5.86,0,0,1,2.58-1.88,11.07,11.07,0,0,1,4.26-.73,15.39,15.39,0,0,1,3.57.38,8.93,8.93,0,0,1,2.58,1,5.12,5.12,0,0,1,1.51,1.3,2.19,2.19,0,0,1,.47,1.25,1.21,1.21,0,0,1-.43,1,2.09,2.09,0,0,1-1.4.4,1.7,1.7,0,0,1-1.07-.32A8.17,8.17,0,0,1,193.92,58h0a5.14,5.14,0,0,0-1.57-1.25,5.36,5.36,0,0,0-2.44-.48,5.14,5.14,0,0,0-2.64.63,2.61,2.61,0,0,0-.87.77,1.81,1.81,0,0,0-.33,1.05,1.91,1.91,0,0,0,.24.94,2.22,2.22,0,0,0,.68.72,6.71,6.71,0,0,0,2,.88c.8.21,1.89.47,3.27.77a18,18,0,0,1,3.9,1.27,6.08,6.08,0,0,1,2.18,1.63,3.25,3.25,0,0,1,.7,2h1a4.2,4.2,0,0,0-.91-2.66,7.14,7.14,0,0,0-2.54-1.93A19,19,0,0,0,192.52,61c-1.38-.3-2.46-.56-3.23-.77a5.76,5.76,0,0,1-1.72-.72,1.25,1.25,0,0,1-.36-.38.9.9,0,0,1-.11-.44.75.75,0,0,1,.15-.47,1.63,1.63,0,0,1,.54-.47,4.16,4.16,0,0,1,2.12-.48,4.45,4.45,0,0,1,2,.36,4.39,4.39,0,0,1,1.26,1h0A8.89,8.89,0,0,0,194.53,60a2.74,2.74,0,0,0,1.68.53,3.06,3.06,0,0,0,2.07-.66,2.22,2.22,0,0,0,.79-1.74,3.14,3.14,0,0,0-.67-1.85,5.82,5.82,0,0,0-1.82-1.58,10.11,10.11,0,0,0-2.87-1.1,17,17,0,0,0-3.8-.4,12.16,12.16,0,0,0-4.65.81,6.83,6.83,0,0,0-3,2.22,5,5,0,0,0-1.05,3,4.37,4.37,0,0,0,1.16,3.07,7.93,7.93,0,0,0,2.92,1.91,31.46,31.46,0,0,0,4.52,1.32h0a13.29,13.29,0,0,1,3.33,1,1.49,1.49,0,0,1,.6.56,1.71,1.71,0,0,1,.19.84.82.82,0,0,1-.16.49,2.09,2.09,0,0,1-.61.54,4.34,4.34,0,0,1-2.33.56A5.75,5.75,0,0,1,188,69a5,5,0,0,1-1.76-1.75l-.44.28.44-.27a4.53,4.53,0,0,0-1-1.16,2.44,2.44,0,0,0-1.6-.49,2.77,2.77,0,0,0-1.92.7A2.28,2.28,0,0,0,181,68a4.29,4.29,0,0,0,1.08,2.71,7.62,7.62,0,0,0,3.21,2.13,14.05,14.05,0,0,0,5.06.82,15.9,15.9,0,0,0,5.22-.75,7,7,0,0,0,3.39-2.33,6,6,0,0,0,1.16-3.71Z"/><path class="cls-2" d="M223,67.25a3.86,3.86,0,0,1-.59,1.91,7,7,0,0,1-1.8,2,9.64,9.64,0,0,1-3.05,1.48,13.89,13.89,0,0,1-4.13.56c-3.27,0-5.81-.86-7.64-2.59a9.1,9.1,0,0,1-2.75-7,10.56,10.56,0,0,1,1.26-5.22,8.66,8.66,0,0,1,3.63-3.51,13.46,13.46,0,0,1,9.45-.69,10.17,10.17,0,0,1,2.9,1.4,7.18,7.18,0,0,1,1.82,1.84,3.41,3.41,0,0,1,.63,1.82,1.86,1.86,0,0,1-.71,1.46,2.55,2.55,0,0,1-1.71.6A1.87,1.87,0,0,1,219.2,61a5.38,5.38,0,0,1-1-1,7.67,7.67,0,0,0-2-2,5,5,0,0,0-2.68-.67A4.73,4.73,0,0,0,209.75,59a6.73,6.73,0,0,0-1.43,4.54,7.93,7.93,0,0,0,.37,2.49A5.46,5.46,0,0,0,209.75,68a4.5,4.5,0,0,0,1.68,1.21,5.49,5.49,0,0,0,2.17.42,5.32,5.32,0,0,0,2.72-.67,6.2,6.2,0,0,0,2-2,4.88,4.88,0,0,1,1-1.27,2.11,2.11,0,0,1,1.37-.45,2.15,2.15,0,0,1,1.61.66A2.08,2.08,0,0,1,223,67.25Z"/><path class="cls-2" d="M223,67.25h-.52a3.39,3.39,0,0,1-.52,1.66,6.48,6.48,0,0,1-1.66,1.79,9.16,9.16,0,0,1-2.89,1.4,13.45,13.45,0,0,1-4,.54c-3.18,0-5.57-.83-7.29-2.45a8.57,8.57,0,0,1-2.58-6.58,10.07,10.07,0,0,1,1.19-5,8,8,0,0,1,3.42-3.3,13,13,0,0,1,9-.66A9.58,9.58,0,0,1,220,56a6.77,6.77,0,0,1,1.69,1.7,2.94,2.94,0,0,1,.54,1.54,1.35,1.35,0,0,1-.52,1.07,2.06,2.06,0,0,1-1.38.47,1.36,1.36,0,0,1-.8-.21,5.25,5.25,0,0,1-.87-.89l-.4.32.42-.31a8.22,8.22,0,0,0-2.17-2.13,5.41,5.41,0,0,0-2.95-.75,5.24,5.24,0,0,0-4.16,1.84,7.22,7.22,0,0,0-1.55,4.88,8.41,8.41,0,0,0,.39,2.65,6,6,0,0,0,1.16,2.11,5.22,5.22,0,0,0,1.87,1.35,6.17,6.17,0,0,0,2.37.45,5.78,5.78,0,0,0,3-.74,6.56,6.56,0,0,0,2.17-2.21h0a4.25,4.25,0,0,1,.93-1.13,1.57,1.57,0,0,1,1-.34,1.62,1.62,0,0,1,1.24.51,1.49,1.49,0,0,1,.49,1.07h1a2.57,2.57,0,0,0-.78-1.78,2.68,2.68,0,0,0-2-.83,2.59,2.59,0,0,0-1.69.58,5,5,0,0,0-1.16,1.4l.44.26-.44-.28a5.5,5.5,0,0,1-1.83,1.88,4.73,4.73,0,0,1-2.45.59,5,5,0,0,1-2-.37,3.92,3.92,0,0,1-1.49-1.08,4.69,4.69,0,0,1-1-1.75,7.4,7.4,0,0,1-.35-2.33,6.29,6.29,0,0,1,1.31-4.21,4.24,4.24,0,0,1,3.38-1.48,4.39,4.39,0,0,1,2.4.59,6.91,6.91,0,0,1,1.88,1.87h0a5.65,5.65,0,0,0,1.08,1.1,2.34,2.34,0,0,0,1.39.4,3.08,3.08,0,0,0,2-.72,2.34,2.34,0,0,0,.89-1.85,4,4,0,0,0-.71-2.1,7.57,7.57,0,0,0-1.95-2,10.63,10.63,0,0,0-3-1.48,12.94,12.94,0,0,0-3.92-.57,12.55,12.55,0,0,0-5.92,1.3,9,9,0,0,0-3.85,3.71,11,11,0,0,0-1.32,5.47,9.63,9.63,0,0,0,2.9,7.33,11.27,11.27,0,0,0,8,2.73,14.33,14.33,0,0,0,4.28-.59,10.22,10.22,0,0,0,3.21-1.56,7.26,7.26,0,0,0,1.93-2.1,4.29,4.29,0,0,0,.66-2.17Z"/><path class="cls-2" d="M232.81,66.26v4a2.9,2.9,0,0,1-.76,2.19,2.62,2.62,0,0,1-1.91.73,2.55,2.55,0,0,1-1.88-.74,3,3,0,0,1-.73-2.18V56.91c0-2.15.86-3.23,2.57-3.23a2.26,2.26,0,0,1,1.9.75,3.9,3.9,0,0,1,.63,2.24,8.7,8.7,0,0,1,2-2.24,4.31,4.31,0,0,1,2.66-.75,7.37,7.37,0,0,1,3.22.75c1,.51,1.57,1.18,1.57,2a1.82,1.82,0,0,1-.67,1.45,2.16,2.16,0,0,1-1.44.57,7.13,7.13,0,0,1-1.4-.33,7.3,7.3,0,0,0-2-.32,3.08,3.08,0,0,0-1.9.55A3.54,3.54,0,0,0,233.52,60,10.85,10.85,0,0,0,233,62.6Q232.81,64.1,232.81,66.26Z"/><path class="cls-2" d="M232.81,66.26h-.52v4a2.41,2.41,0,0,1-.59,1.82,2.15,2.15,0,0,1-1.56.59,2,2,0,0,1-1.51-.59,2.49,2.49,0,0,1-.59-1.82V56.91a3.39,3.39,0,0,1,.53-2.1,1.81,1.81,0,0,1,1.53-.62,2.68,2.68,0,0,1,.94.15,1.29,1.29,0,0,1,.55.41,3.36,3.36,0,0,1,.53,1.94l.06,1.63.89-1.38a8.19,8.19,0,0,1,1.82-2.1,3.82,3.82,0,0,1,2.35-.65,6.71,6.71,0,0,1,3,.71,2.56,2.56,0,0,1,1,.73,1.28,1.28,0,0,1,.29.81A1.32,1.32,0,0,1,241,57.5a1.72,1.72,0,0,1-1.11.45l-.38-.07c-.21-.05-.51-.13-.87-.24a7.93,7.93,0,0,0-2.11-.35,3.62,3.62,0,0,0-2.21.66A4.09,4.09,0,0,0,233,59.83a11.18,11.18,0,0,0-.59,2.72c-.1,1-.16,2.26-.16,3.71h1c0-1.43.05-2.63.15-3.61a9.57,9.57,0,0,1,.54-2.46,3,3,0,0,1,1-1.42,2.57,2.57,0,0,1,1.59-.45,6.58,6.58,0,0,1,1.82.31c.37.11.68.19.93.25a2.64,2.64,0,0,0,.61.09,2.69,2.69,0,0,0,1.78-.69,2.38,2.38,0,0,0,.85-1.84A2.28,2.28,0,0,0,242,55a3.7,3.7,0,0,0-1.35-1,8,8,0,0,0-3.45-.81,4.78,4.78,0,0,0-3,.86,9.31,9.31,0,0,0-2.07,2.37l.43.28.52,0a4.36,4.36,0,0,0-.75-2.53,2.23,2.23,0,0,0-1-.73,3.45,3.45,0,0,0-1.32-.23,2.85,2.85,0,0,0-2.33,1,4.33,4.33,0,0,0-.75,2.74V70.27a3.44,3.44,0,0,0,.88,2.54,3,3,0,0,0,2.24.89,3.13,3.13,0,0,0,2.27-.87,3.4,3.4,0,0,0,.91-2.56v-4Z"/><path class="cls-2" d="M247.58,51.45a3,3,0,0,1-1.88-.62,2.23,2.23,0,0,1,0-3.42,2.82,2.82,0,0,1,1.86-.66,2.93,2.93,0,0,1,1.82.6,2,2,0,0,1,.79,1.74,2.1,2.1,0,0,1-.77,1.73A2.83,2.83,0,0,1,247.58,51.45Zm2.61,4.95V70.27a2.93,2.93,0,0,1-.75,2.18,2.63,2.63,0,0,1-1.92.74,2.46,2.46,0,0,1-1.88-.76,3,3,0,0,1-.73-2.16V56.54a2.9,2.9,0,0,1,.73-2.14,2.55,2.55,0,0,1,1.88-.72,2.53,2.53,0,0,1,2.67,2.72Z"/><path class="cls-2" d="M247.58,51.45v-.52a2.41,2.41,0,0,1-1.56-.5,1.73,1.73,0,0,1,0-2.62,2.3,2.3,0,0,1,1.54-.54,2.4,2.4,0,0,1,1.51.49,1.54,1.54,0,0,1,.59,1.33,1.58,1.58,0,0,1-.58,1.33,2.33,2.33,0,0,1-1.52.51v1a3.37,3.37,0,0,0,2.16-.74,2.65,2.65,0,0,0,1-2.13,2.57,2.57,0,0,0-1-2.15,3.54,3.54,0,0,0-4.32.07,2.75,2.75,0,0,0,0,4.22,3.45,3.45,0,0,0,2.2.73Zm2.61,4.95h-.51V70.27a2.38,2.38,0,0,1-.6,1.81,2.12,2.12,0,0,1-1.56.6,2,2,0,0,1-1.51-.6,2.48,2.48,0,0,1-.58-1.81V56.54a2.38,2.38,0,0,1,.57-1.78,2.09,2.09,0,0,1,1.52-.57,2.19,2.19,0,0,1,1.56.58,2.12,2.12,0,0,1,.6,1.63h1a3.07,3.07,0,0,0-3.19-3.24,3.1,3.1,0,0,0-2.24.87,3.42,3.42,0,0,0-.88,2.51V70.27a3.52,3.52,0,0,0,.87,2.52,3,3,0,0,0,2.25.91,3.12,3.12,0,0,0,2.28-.88,3.44,3.44,0,0,0,.91-2.55V56.4Z"/><path class="cls-2" d="M260.52,56.37V57a10,10,0,0,1,3.09-2.45,8.08,8.08,0,0,1,3.64-.79,9,9,0,0,1,4.48,1.15A8.09,8.09,0,0,1,275,58.2a10.77,10.77,0,0,1,1.19,5.2,11.59,11.59,0,0,1-.69,4.07,8.87,8.87,0,0,1-1.88,3.11,8.15,8.15,0,0,1-2.83,1.93,9.11,9.11,0,0,1-3.51.68,7.94,7.94,0,0,1-3.8-.83,10.6,10.6,0,0,1-2.93-2.42v7.2c0,2.11-.85,3.17-2.53,3.17a2.11,2.11,0,0,1-2-.82,4.76,4.76,0,0,1-.48-2.38V56.4a2.85,2.85,0,0,1,.66-2,2.38,2.38,0,0,1,1.8-.67,2.5,2.5,0,0,1,1.82.69A2.7,2.7,0,0,1,260.52,56.37Zm10.34,7a7.52,7.52,0,0,0-.64-3.26,4.88,4.88,0,0,0-1.76-2.1,4.6,4.6,0,0,0-2.51-.73,4.91,4.91,0,0,0-3.68,1.57,6.4,6.4,0,0,0-1.5,4.6,6.29,6.29,0,0,0,1.49,4.46A4.84,4.84,0,0,0,266,69.48a4.57,4.57,0,0,0,2.44-.69,5,5,0,0,0,1.8-2.09A7.58,7.58,0,0,0,270.86,63.35Z"/><path class="cls-2" d="M260.52,56.37H260V58.3l.9-1A9.52,9.52,0,0,1,263.84,55a7.57,7.57,0,0,1,3.41-.73,8.6,8.6,0,0,1,4.23,1.07,7.67,7.67,0,0,1,3,3.14,10.21,10.21,0,0,1,1.13,5,11,11,0,0,1-.66,3.89,8.5,8.5,0,0,1-1.77,2.93A7.69,7.69,0,0,1,270.56,72a8.64,8.64,0,0,1-3.31.64,7.45,7.45,0,0,1-3.56-.77,9.84,9.84,0,0,1-2.78-2.31l-.91-1v8.57a3.26,3.26,0,0,1-.52,2.06,1.75,1.75,0,0,1-1.49.59,2.69,2.69,0,0,1-1.05-.16.93.93,0,0,1-.48-.4,4.2,4.2,0,0,1-.42-2.12V56.4a2.3,2.3,0,0,1,.52-1.69,1.91,1.91,0,0,1,1.43-.52,2,2,0,0,1,1.46.55,2.14,2.14,0,0,1,.55,1.63h1a3.19,3.19,0,0,0-.86-2.36,3,3,0,0,0-2.18-.85,2.91,2.91,0,0,0-2.17.84,3.25,3.25,0,0,0-.8,2.4V77.11a5.23,5.23,0,0,0,.55,2.64,2,2,0,0,0,1,.83,3.75,3.75,0,0,0,1.44.24,2.79,2.79,0,0,0,2.3-1,4.3,4.3,0,0,0,.74-2.7v-7.2h-.51l-.39.34a11.19,11.19,0,0,0,3.07,2.54,8.5,8.5,0,0,0,4.05.88A9.53,9.53,0,0,0,271,73a8.73,8.73,0,0,0,3-2.06,9.48,9.48,0,0,0,2-3.28,12.19,12.19,0,0,0,.72-4.25A11.3,11.3,0,0,0,275.42,58,8.63,8.63,0,0,0,272,54.41a9.52,9.52,0,0,0-4.73-1.21,8.68,8.68,0,0,0-3.86.83,10.65,10.65,0,0,0-3.26,2.58l.39.34H261v-.58Zm10.34,7h.52a8,8,0,0,0-.69-3.48,5.36,5.36,0,0,0-2-2.31,5,5,0,0,0-2.78-.81,5.42,5.42,0,0,0-4.05,1.72,6.89,6.89,0,0,0-1.64,5,6.76,6.76,0,0,0,1.62,4.81A5.37,5.37,0,0,0,266,70a5,5,0,0,0,2.71-.77,5.46,5.46,0,0,0,2-2.29,8.14,8.14,0,0,0,.73-3.58h-1a7.09,7.09,0,0,1-.63,3.13,4.39,4.39,0,0,1-1.6,1.87A4.08,4.08,0,0,1,266,69a4.37,4.37,0,0,1-3.32-1.43,5.82,5.82,0,0,1-1.35-4.11,6,6,0,0,1,1.36-4.25,4.39,4.39,0,0,1,3.31-1.4,4,4,0,0,1,2.23.65,4.38,4.38,0,0,1,1.58,1.87,7.12,7.12,0,0,1,.59,3.05Z"/><path class="cls-2" d="M280.69,54.1h.58V51.22c0-.78,0-1.38.06-1.82a2.57,2.57,0,0,1,.38-1.14,2.4,2.4,0,0,1,.89-.8,2.8,2.8,0,0,1,1.3-.3,2.76,2.76,0,0,1,1.81.68A2,2,0,0,1,286.4,49a9,9,0,0,1,.14,1.87V54.1h1.94a2.64,2.64,0,0,1,1.71.48,1.56,1.56,0,0,1,.59,1.24,1.38,1.38,0,0,1-.84,1.36,6.12,6.12,0,0,1-2.41.38h-1v8.83a12.64,12.64,0,0,0,.09,1.73,1.65,1.65,0,0,0,.47,1,1.68,1.68,0,0,0,1.22.38,7.2,7.2,0,0,0,1.26-.15,7.12,7.12,0,0,1,1.24-.15,1.68,1.68,0,0,1,1.15.47,1.49,1.49,0,0,1,.51,1.15,1.94,1.94,0,0,1-1.39,1.77,10.23,10.23,0,0,1-4,.62,7.47,7.47,0,0,1-3.76-.76,3.55,3.55,0,0,1-1.67-2.09,13.16,13.16,0,0,1-.39-3.57V57.56h-.7a2.67,2.67,0,0,1-1.74-.49,1.54,1.54,0,0,1-.6-1.25,1.51,1.51,0,0,1,.63-1.24A3,3,0,0,1,280.69,54.1Z"/><path class="cls-2" d="M280.69,54.1v.51h1.09V51.22q0-1.15.06-1.77a2.13,2.13,0,0,1,.3-.91h0a1.68,1.68,0,0,1,.69-.62,2.24,2.24,0,0,1,1.06-.25,2.19,2.19,0,0,1,1.48.57,1.51,1.51,0,0,1,.52.83,9.11,9.11,0,0,1,.13,1.76v3.78h2.45a2.11,2.11,0,0,1,1.38.37,1,1,0,0,1,.4.84,1,1,0,0,1-.13.55.9.9,0,0,1-.41.34,5.5,5.5,0,0,1-2.19.34H286v9.34a14.14,14.14,0,0,0,.09,1.8,2.23,2.23,0,0,0,.61,1.28,2.19,2.19,0,0,0,1.59.52,7.76,7.76,0,0,0,1.36-.15,6.42,6.42,0,0,1,1.14-.14,1.11,1.11,0,0,1,.8.33,1,1,0,0,1,.35.77,1.19,1.19,0,0,1-.24.71,2.2,2.2,0,0,1-.85.59,9.67,9.67,0,0,1-3.79.58A7,7,0,0,1,283.6,72a3.06,3.06,0,0,1-1.45-1.79,12.74,12.74,0,0,1-.37-3.43V57.05h-1.21a2.14,2.14,0,0,1-1.41-.38,1,1,0,0,1-.42-.85,1,1,0,0,1,.43-.83,2.52,2.52,0,0,1,1.52-.38v-1a3.46,3.46,0,0,0-2.15.59,2,2,0,0,0-.82,1.64,2.09,2.09,0,0,0,.78,1.65,3.21,3.21,0,0,0,2.07.61h.18v8.69a13.28,13.28,0,0,0,.42,3.72,4.09,4.09,0,0,0,1.9,2.39,8,8,0,0,0,4,.82A10.6,10.6,0,0,0,291.3,73a3.14,3.14,0,0,0,1.24-.9A2.09,2.09,0,0,0,293,70.8a2,2,0,0,0-.68-1.53,2.11,2.11,0,0,0-1.49-.6,6.93,6.93,0,0,0-1.34.16,7.46,7.46,0,0,1-1.16.14,1.19,1.19,0,0,1-.86-.23,1.18,1.18,0,0,1-.32-.7,13,13,0,0,1-.08-1.65V58.08h.47a6.44,6.44,0,0,0,2.62-.44,1.83,1.83,0,0,0,.85-.72,2.06,2.06,0,0,0,.29-1.1,2,2,0,0,0-.77-1.63,3.15,3.15,0,0,0-2-.6h-1.42V50.83a9.54,9.54,0,0,0-.16-2,2.52,2.52,0,0,0-.86-1.4,3.24,3.24,0,0,0-2.14-.81,3.19,3.19,0,0,0-1.54.37,2.87,2.87,0,0,0-1.09,1l.44.27-.43-.28a3,3,0,0,0-.46,1.37,18.42,18.42,0,0,0-.07,1.87v2.37h-.06Z"/><path class="cls-4" d="M7.05,83.86v1.66a1.88,1.88,0,0,1-.06.53.81.81,0,0,1-.2.36,2.53,2.53,0,0,1-.38.31,5.6,5.6,0,0,1-1.29.62,4.43,4.43,0,0,1-1.34.19,3.73,3.73,0,0,1-1.55-.31A3.24,3.24,0,0,1,1,86.33a4.1,4.1,0,0,1-.76-1.42A6.28,6.28,0,0,1,0,83.05,6.36,6.36,0,0,1,.28,81.2,3.93,3.93,0,0,1,1,79.78a3.37,3.37,0,0,1,1.21-.9,4.18,4.18,0,0,1,1.62-.31,3.36,3.36,0,0,1,1.31.24,2.61,2.61,0,0,1,1.47,1.33,1.77,1.77,0,0,1,.18.71.79.79,0,0,1-.21.56.63.63,0,0,1-.5.24.61.61,0,0,1-.31-.09.82.82,0,0,1-.24-.25,7.11,7.11,0,0,0-.47-.77,1.62,1.62,0,0,0-.52-.44,1.78,1.78,0,0,0-.82-.17,1.91,1.91,0,0,0-1.62.81,3,3,0,0,0-.44,1A4.72,4.72,0,0,0,1.53,83a3.94,3.94,0,0,0,.6,2.35,1.92,1.92,0,0,0,1.66.82,2.82,2.82,0,0,0,1-.16,4.58,4.58,0,0,0,.92-.45V84.15H4.53A1.08,1.08,0,0,1,3.9,84a.55.55,0,0,1-.22-.5A.68.68,0,0,1,3.86,83a.66.66,0,0,1,.49-.19H6a1.56,1.56,0,0,1,.52.07.56.56,0,0,1,.35.29A1.31,1.31,0,0,1,7.05,83.86Z"/><path class="cls-4" d="M14.07,80.07H10.71V82.2H13.8a.66.66,0,0,1,.51.18.64.64,0,0,1,.17.48.71.71,0,0,1-.16.48.67.67,0,0,1-.52.18H10.71V86h3.48a.69.69,0,0,1,.53.19.72.72,0,0,1,.17.51.63.63,0,0,1-.7.69H10.13a.88.88,0,0,1-.7-.25,1.3,1.3,0,0,1-.21-.82V79.8a1.77,1.77,0,0,1,.09-.62.7.7,0,0,1,.3-.35,1.14,1.14,0,0,1,.52-.11h3.94a.67.67,0,0,1,.53.19.64.64,0,0,1,.17.48.69.69,0,0,1-.17.5A.71.71,0,0,1,14.07,80.07Z"/><path class="cls-4" d="M18.77,79.62l2.87,5.11V79.58a1.23,1.23,0,0,1,.19-.76.58.58,0,0,1,.49-.25.63.63,0,0,1,.51.25,1.31,1.31,0,0,1,.18.76v6.81c0,.76-.26,1.14-.8,1.14a.86.86,0,0,1-.36-.07.75.75,0,0,1-.3-.21,1.87,1.87,0,0,1-.26-.35c-.08-.13-.16-.27-.25-.4l-2.79-5v5.08a1.22,1.22,0,0,1-.2.75.6.6,0,0,1-.5.25.62.62,0,0,1-.51-.26,1.28,1.28,0,0,1-.19-.74V79.84a2.27,2.27,0,0,1,.08-.66,1,1,0,0,1,.32-.44.78.78,0,0,1,.48-.17.74.74,0,0,1,.34.08.82.82,0,0,1,.25.21,1.88,1.88,0,0,1,.22.33Z"/><path class="cls-4" d="M30.25,80.07H26.89V82.2H30a.66.66,0,0,1,.51.18.69.69,0,0,1,.17.48.72.72,0,0,1-.17.48.66.66,0,0,1-.51.18H26.89V86h3.47a.67.67,0,0,1,.53.19.72.72,0,0,1,.18.51.7.7,0,0,1-.18.5.67.67,0,0,1-.53.19H26.31a.87.87,0,0,1-.7-.25,1.3,1.3,0,0,1-.21-.82V79.8a1.77,1.77,0,0,1,.09-.62.65.65,0,0,1,.3-.35,1.14,1.14,0,0,1,.52-.11h3.94a.67.67,0,0,1,.53.19.69.69,0,0,1,.17.48.74.74,0,0,1-.17.5A.71.71,0,0,1,30.25,80.07Z"/><path class="cls-4" d="M35,83.68h-.52v2.78a1.27,1.27,0,0,1-.21.81.64.64,0,0,1-.53.26.65.65,0,0,1-.56-.27,1.37,1.37,0,0,1-.19-.8V79.8a1.31,1.31,0,0,1,.21-.83.92.92,0,0,1,.7-.25h2.43a7,7,0,0,1,.86,0,1.91,1.91,0,0,1,1.25.7,2.31,2.31,0,0,1,.41.74,2.9,2.9,0,0,1,.13.89,2.4,2.4,0,0,1-.46,1.55,2.52,2.52,0,0,1-1.41.82,3,3,0,0,1,.76.73,8.42,8.42,0,0,1,.64,1,9.88,9.88,0,0,1,.45,1,2.4,2.4,0,0,1,.15.61.75.75,0,0,1-.09.34.69.69,0,0,1-.25.26.66.66,0,0,1-.37.1.69.69,0,0,1-.43-.14,1.26,1.26,0,0,1-.29-.35q-.12-.21-.33-.63l-.6-1.17a7.23,7.23,0,0,0-.58-1,1.52,1.52,0,0,0-.51-.46A1.59,1.59,0,0,0,35,83.68ZM35.86,80H34.49v2.38h1.33a3.38,3.38,0,0,0,.91-.11,1.07,1.07,0,0,0,.56-.37,1.22,1.22,0,0,0,.19-.73,1.28,1.28,0,0,0-.15-.63,1,1,0,0,0-.44-.41A2.57,2.57,0,0,0,35.86,80Z"/><path class="cls-4" d="M45.87,86.4l-.35-1.09h-3l-.35,1.12a4.15,4.15,0,0,1-.35.87.54.54,0,0,1-.48.23.64.64,0,0,1-.49-.24.79.79,0,0,1-.22-.55,1.64,1.64,0,0,1,0-.37c0-.12.09-.3.17-.52l1.88-5.63c.05-.16.12-.35.19-.58a3.46,3.46,0,0,1,.24-.56,1.1,1.1,0,0,1,.34-.37.94.94,0,0,1,.52-.14.9.9,0,0,1,.51.14,1,1,0,0,1,.34.36,2.52,2.52,0,0,1,.22.47c.06.17.13.39.22.67l1.92,5.59a3.19,3.19,0,0,1,.23.93.84.84,0,0,1-.21.55.67.67,0,0,1-.52.25.56.56,0,0,1-.3-.07l-.21-.2a1.81,1.81,0,0,1-.18-.39C46,86.69,45.92,86.54,45.87,86.4ZM42.92,84h2.19L44,80.42Z"/><path class="cls-4" d="M54.09,80.17H52.46v6.29a1.31,1.31,0,0,1-.21.81.64.64,0,0,1-.53.26.65.65,0,0,1-.54-.27,1.25,1.25,0,0,1-.21-.8V80.17H49.35a.74.74,0,0,1-.57-.2.75.75,0,0,1-.19-.52.71.71,0,0,1,.2-.53.75.75,0,0,1,.56-.2h4.74a.74.74,0,0,1,.57.2.73.73,0,0,1,.19.53.71.71,0,0,1-.19.52A.77.77,0,0,1,54.09,80.17Z"/><path class="cls-4" d="M61.34,80.07H58V82.2h3.09a.66.66,0,0,1,.51.18.69.69,0,0,1,.17.48.72.72,0,0,1-.17.48.66.66,0,0,1-.51.18H58V86h3.47a.67.67,0,0,1,.53.19.72.72,0,0,1,.18.51.7.7,0,0,1-.18.5.67.67,0,0,1-.53.19H57.4a.87.87,0,0,1-.7-.25,1.3,1.3,0,0,1-.21-.82V79.8a1.77,1.77,0,0,1,.09-.62.7.7,0,0,1,.3-.35,1.14,1.14,0,0,1,.52-.11h3.94a.67.67,0,0,1,.53.19.69.69,0,0,1,.17.48.74.74,0,0,1-.17.5A.71.71,0,0,1,61.34,80.07Z"/><path class="cls-4" d="M70.66,78.57a3.51,3.51,0,0,1,2,.55,3.32,3.32,0,0,1,1.24,1.55A6.16,6.16,0,0,1,74.29,83a6.55,6.55,0,0,1-.23,1.83,4.09,4.09,0,0,1-.69,1.42,3.08,3.08,0,0,1-1.14.92,3.56,3.56,0,0,1-1.54.32,3.48,3.48,0,0,1-1.54-.33A3,3,0,0,1,68,86.28a4,4,0,0,1-.69-1.44A6.55,6.55,0,0,1,67.08,83a6.18,6.18,0,0,1,.25-1.83,4,4,0,0,1,.7-1.42,3.09,3.09,0,0,1,1.13-.9A3.59,3.59,0,0,1,70.66,78.57ZM72.78,83a4.76,4.76,0,0,0-.26-1.65,2.15,2.15,0,0,0-.74-1A1.85,1.85,0,0,0,70.66,80a1.63,1.63,0,0,0-.82.2,1.88,1.88,0,0,0-.66.57,3.12,3.12,0,0,0-.43,1A5.3,5.3,0,0,0,68.59,83a5.39,5.39,0,0,0,.16,1.33,3,3,0,0,0,.45,1,1.93,1.93,0,0,0,.66.59,1.74,1.74,0,0,0,.82.2,1.8,1.8,0,0,0,1-.34,2.29,2.29,0,0,0,.77-1A4.65,4.65,0,0,0,72.78,83Z"/><path class="cls-4" d="M78.26,79.62l2.87,5.11V79.58a1.31,1.31,0,0,1,.18-.76.62.62,0,0,1,.5-.25.63.63,0,0,1,.51.25,1.31,1.31,0,0,1,.18.76v6.81c0,.76-.27,1.14-.8,1.14a.8.8,0,0,1-.36-.07.75.75,0,0,1-.3-.21,2.48,2.48,0,0,1-.27-.35l-.24-.4-2.79-5v5.08a1.22,1.22,0,0,1-.2.75.6.6,0,0,1-.5.25.62.62,0,0,1-.51-.26,1.21,1.21,0,0,1-.19-.74V79.84a2.27,2.27,0,0,1,.08-.66.89.89,0,0,1,.32-.44.76.76,0,0,1,.82-.09.82.82,0,0,1,.25.21,2.68,2.68,0,0,1,.22.33Z"/><path class="cls-4" d="M89.74,80.07H86.38V82.2h3.09a.66.66,0,0,1,.51.18.69.69,0,0,1,.17.48.72.72,0,0,1-.17.48.66.66,0,0,1-.51.18H86.38V86h3.47a.67.67,0,0,1,.53.19.72.72,0,0,1,.18.51.7.7,0,0,1-.18.5.67.67,0,0,1-.53.19h-4a.85.85,0,0,1-.7-.25,1.3,1.3,0,0,1-.21-.82V79.8a1.77,1.77,0,0,1,.09-.62.62.62,0,0,1,.3-.35,1.14,1.14,0,0,1,.52-.11h3.94a.63.63,0,0,1,.7.67.74.74,0,0,1-.17.5A.72.72,0,0,1,89.74,80.07Z"/><path class="cls-4" d="M100.6,80.17H99v6.29a1.31,1.31,0,0,1-.21.81.67.67,0,0,1-1.07,0,1.25,1.25,0,0,1-.21-.8V80.17H95.86a.73.73,0,0,1-.56-.2.82.82,0,0,1,0-1,.77.77,0,0,1,.56-.2h4.74a.68.68,0,0,1,.77.73.75.75,0,0,1-.19.52A.78.78,0,0,1,100.6,80.17Z"/><path class="cls-4" d="M106.24,78.57a3.51,3.51,0,0,1,2,.55,3.32,3.32,0,0,1,1.24,1.55,6.16,6.16,0,0,1,.42,2.37,6.55,6.55,0,0,1-.23,1.83,4.09,4.09,0,0,1-.69,1.42,3.08,3.08,0,0,1-1.14.92,3.56,3.56,0,0,1-1.54.32,3.48,3.48,0,0,1-1.54-.33,3,3,0,0,1-1.14-.92,4.2,4.2,0,0,1-.7-1.44,7,7,0,0,1-.23-1.81,6.54,6.54,0,0,1,.24-1.83,4.21,4.21,0,0,1,.71-1.42,3.09,3.09,0,0,1,1.13-.9A3.59,3.59,0,0,1,106.24,78.57ZM108.36,83a4.76,4.76,0,0,0-.26-1.65,2.1,2.1,0,0,0-.75-1,1.8,1.8,0,0,0-1.11-.36,1.63,1.63,0,0,0-.82.2,1.88,1.88,0,0,0-.66.57,3.12,3.12,0,0,0-.43,1,5.3,5.3,0,0,0-.16,1.32,5.39,5.39,0,0,0,.16,1.33,3,3,0,0,0,.45,1,1.93,1.93,0,0,0,.66.59,1.74,1.74,0,0,0,.82.2,1.83,1.83,0,0,0,1-.34,2.29,2.29,0,0,0,.77-1A4.65,4.65,0,0,0,108.36,83Z"/><path class="cls-4" d="M118.46,78.57a3.51,3.51,0,0,1,2,.55,3.32,3.32,0,0,1,1.24,1.55,6.16,6.16,0,0,1,.42,2.37,6.55,6.55,0,0,1-.23,1.83,4.09,4.09,0,0,1-.69,1.42,3.13,3.13,0,0,1-1.13.92,3.64,3.64,0,0,1-1.55.32A3.48,3.48,0,0,1,117,87.2a3,3,0,0,1-1.14-.92,4,4,0,0,1-.69-1.44,6.55,6.55,0,0,1-.24-1.81,6.18,6.18,0,0,1,.25-1.83,4,4,0,0,1,.7-1.42,3.18,3.18,0,0,1,1.13-.9A3.59,3.59,0,0,1,118.46,78.57ZM120.58,83a4.54,4.54,0,0,0-.26-1.65,2.15,2.15,0,0,0-.74-1,1.85,1.85,0,0,0-1.12-.36,1.66,1.66,0,0,0-.82.2,1.88,1.88,0,0,0-.66.57,3.12,3.12,0,0,0-.43,1,5.3,5.3,0,0,0-.16,1.32,5.39,5.39,0,0,0,.16,1.33,3,3,0,0,0,.45,1,1.93,1.93,0,0,0,.66.59,1.77,1.77,0,0,0,.82.2,1.83,1.83,0,0,0,1.06-.34,2.28,2.28,0,0,0,.76-1A4.65,4.65,0,0,0,120.58,83Z"/><path class="cls-4" d="M126.06,79.62l2.87,5.11V79.58a1.23,1.23,0,0,1,.19-.76.58.58,0,0,1,.49-.25.63.63,0,0,1,.51.25,1.31,1.31,0,0,1,.18.76v6.81c0,.76-.26,1.14-.8,1.14a.86.86,0,0,1-.36-.07.75.75,0,0,1-.3-.21,1.87,1.87,0,0,1-.26-.35l-.25-.4-2.79-5v5.08a1.22,1.22,0,0,1-.2.75.6.6,0,0,1-.5.25.62.62,0,0,1-.51-.26,1.21,1.21,0,0,1-.19-.74V79.84a2.27,2.27,0,0,1,.08-.66.89.89,0,0,1,.32-.44.78.78,0,0,1,.47-.17.75.75,0,0,1,.35.08.82.82,0,0,1,.25.21,1.88,1.88,0,0,1,.22.33Z"/><path class="cls-4" d="M137.54,80.07h-3.36V82.2h3.09a.66.66,0,0,1,.51.18.69.69,0,0,1,.17.48.72.72,0,0,1-.17.48.66.66,0,0,1-.51.18h-3.09V86h3.47a.67.67,0,0,1,.53.19.72.72,0,0,1,.18.51.7.7,0,0,1-.18.5.67.67,0,0,1-.53.19H133.6a.87.87,0,0,1-.7-.25,1.3,1.3,0,0,1-.21-.82V79.8a1.77,1.77,0,0,1,.09-.62.65.65,0,0,1,.3-.35,1.14,1.14,0,0,1,.52-.11h3.94a.67.67,0,0,1,.53.19.69.69,0,0,1,.17.48.74.74,0,0,1-.17.5A.71.71,0,0,1,137.54,80.07Z"/><path class="cls-4" d="M142,85h-1.59a.73.73,0,0,1-.55-.2.69.69,0,0,1-.19-.51.66.66,0,0,1,.74-.72H142a.73.73,0,0,1,.55.2.75.75,0,0,1,.18.52.72.72,0,0,1-.18.51A.71.71,0,0,1,142,85Z"/><path class="cls-4" d="M146,79.64v2.48h3.22V79.64a1.28,1.28,0,0,1,.2-.8.64.64,0,0,1,.54-.27.65.65,0,0,1,.54.27,1.25,1.25,0,0,1,.21.8v6.82a1.25,1.25,0,0,1-.21.8.65.65,0,0,1-.54.27.63.63,0,0,1-.54-.27,1.3,1.3,0,0,1-.2-.8V83.55H146v2.91a1.25,1.25,0,0,1-.21.8.66.66,0,0,1-.55.27.62.62,0,0,1-.53-.27,1.3,1.3,0,0,1-.2-.8V79.64a1.35,1.35,0,0,1,.19-.8.69.69,0,0,1,1.09,0A1.25,1.25,0,0,1,146,79.64Z"/><path class="cls-4" d="M153.05,83.8V79.64a1.35,1.35,0,0,1,.2-.8.69.69,0,0,1,1.09,0,1.28,1.28,0,0,1,.2.8V83.9a4.57,4.57,0,0,0,.14,1.21,1.41,1.41,0,0,0,.49.76,1.6,1.6,0,0,0,1,.27,1.37,1.37,0,0,0,1.23-.55,3.08,3.08,0,0,0,.36-1.66V79.64a1.32,1.32,0,0,1,.2-.8.65.65,0,0,1,.54-.27.67.67,0,0,1,.55.27,1.32,1.32,0,0,1,.2.8V83.8a7.37,7.37,0,0,1-.16,1.7,2.81,2.81,0,0,1-.64,1.19,2.43,2.43,0,0,1-.93.64,3.64,3.64,0,0,1-1.25.2,4.27,4.27,0,0,1-1.46-.22,2.25,2.25,0,0,1-1-.66,2.81,2.81,0,0,1-.57-1.16A6.89,6.89,0,0,1,153.05,83.8Z"/><path class="cls-4" d="M163.55,79.62l2.87,5.11V79.58a1.31,1.31,0,0,1,.18-.76.63.63,0,0,1,1,0,1.23,1.23,0,0,1,.19.76v6.81c0,.76-.27,1.14-.8,1.14a.87.87,0,0,1-.37-.07.91.91,0,0,1-.3-.21,2.45,2.45,0,0,1-.26-.35l-.24-.4-2.8-5v5.08a1.22,1.22,0,0,1-.19.75.63.63,0,0,1-1,0,1.21,1.21,0,0,1-.19-.74V79.84a2,2,0,0,1,.08-.66.93.93,0,0,1,.31-.44.8.8,0,0,1,.48-.17.71.71,0,0,1,.34.08.86.86,0,0,1,.26.21,2.68,2.68,0,0,1,.22.33Z"/><path class="cls-4" d="M171.09,78.72H173a4.46,4.46,0,0,1,1.3.17,2.21,2.21,0,0,1,1,.62A4.78,4.78,0,0,1,176.46,83a7.8,7.8,0,0,1-.11,1.42,4.78,4.78,0,0,1-.36,1.16,3.48,3.48,0,0,1-.61.93,2.76,2.76,0,0,1-.65.5,2.87,2.87,0,0,1-.76.27,5,5,0,0,1-.91.07h-1.94a1.14,1.14,0,0,1-.62-.14.74.74,0,0,1-.27-.41,3.17,3.17,0,0,1-.06-.68V79.8a1.25,1.25,0,0,1,.22-.83A.89.89,0,0,1,171.09,78.72Zm.57,1.39V86h1.13a4.47,4.47,0,0,0,.59,0,1.44,1.44,0,0,0,.43-.11,1.56,1.56,0,0,0,.4-.27A3.59,3.59,0,0,0,175,83a4.3,4.3,0,0,0-.33-1.92,1.57,1.57,0,0,0-.81-.82,3.59,3.59,0,0,0-1.16-.17Z"/><path class="cls-4" d="M180.54,83.68H180v2.78a1.27,1.27,0,0,1-.21.81.64.64,0,0,1-.53.26.65.65,0,0,1-.56-.27,1.37,1.37,0,0,1-.19-.8V79.8a1.31,1.31,0,0,1,.21-.83.92.92,0,0,1,.7-.25h2.43a7,7,0,0,1,.86,0,1.91,1.91,0,0,1,1.25.7,2.31,2.31,0,0,1,.41.74,2.9,2.9,0,0,1,.13.89,2.4,2.4,0,0,1-.46,1.55,2.52,2.52,0,0,1-1.41.82,2.88,2.88,0,0,1,.76.73,7.35,7.35,0,0,1,.64,1,9.88,9.88,0,0,1,.45,1,2.4,2.4,0,0,1,.15.61.75.75,0,0,1-.09.34.63.63,0,0,1-.25.26.66.66,0,0,1-.37.1.69.69,0,0,1-.43-.14,1.26,1.26,0,0,1-.29-.35q-.12-.21-.33-.63l-.6-1.17a6.32,6.32,0,0,0-.58-1,1.52,1.52,0,0,0-.51-.46A1.56,1.56,0,0,0,180.54,83.68ZM181.4,80H180v2.38h1.34a3.35,3.35,0,0,0,.9-.11,1.07,1.07,0,0,0,.56-.37,1.22,1.22,0,0,0,.19-.73,1.28,1.28,0,0,0-.15-.63,1,1,0,0,0-.44-.41A2.54,2.54,0,0,0,181.4,80Z"/><path class="cls-4" d="M191.54,80.07h-3.36V82.2h3.09a.66.66,0,0,1,.51.18.69.69,0,0,1,.17.48.72.72,0,0,1-.17.48.66.66,0,0,1-.51.18h-3.09V86h3.47a.67.67,0,0,1,.53.19.72.72,0,0,1,.18.51.7.7,0,0,1-.18.5.67.67,0,0,1-.53.19H187.6a.87.87,0,0,1-.7-.25,1.3,1.3,0,0,1-.21-.82V79.8a1.77,1.77,0,0,1,.09-.62.7.7,0,0,1,.3-.35,1.14,1.14,0,0,1,.52-.11h3.94a.67.67,0,0,1,.53.19.69.69,0,0,1,.17.48.74.74,0,0,1-.17.5A.71.71,0,0,1,191.54,80.07Z"/><path class="cls-4" d="M195.22,78.72h1.95a4.5,4.5,0,0,1,1.3.17,2.21,2.21,0,0,1,1,.62A4.78,4.78,0,0,1,200.6,83a8.81,8.81,0,0,1-.11,1.42,4.78,4.78,0,0,1-.36,1.16,3.51,3.51,0,0,1-.62.93,2.57,2.57,0,0,1-.65.5,2.68,2.68,0,0,1-.75.27,5.1,5.1,0,0,1-.91.07h-1.95a1.12,1.12,0,0,1-.61-.14.65.65,0,0,1-.27-.41,3.17,3.17,0,0,1-.06-.68V79.8a1.31,1.31,0,0,1,.21-.83A.92.92,0,0,1,195.22,78.72Zm.58,1.39V86h1.13a4.3,4.3,0,0,0,.58,0,1.49,1.49,0,0,0,.44-.11,1.36,1.36,0,0,0,.39-.27,3.54,3.54,0,0,0,.75-2.56,4.3,4.3,0,0,0-.33-1.92,1.57,1.57,0,0,0-.81-.82,3.61,3.61,0,0,0-1.17-.17Z"/><path class="cls-4" d="M211.2,86,210,80.82l-1.2,5.2c-.1.39-.17.67-.23.85a1.09,1.09,0,0,1-.29.46.75.75,0,0,1-.54.2.81.81,0,0,1-.46-.12,1,1,0,0,1-.29-.34,3,3,0,0,1-.18-.53c0-.2-.09-.39-.12-.56l-1.23-5.84a4.11,4.11,0,0,1-.11-.77.88.88,0,0,1,.2-.57.66.66,0,0,1,.5-.23.56.56,0,0,1,.55.31,4.21,4.21,0,0,1,.24.89l1,5.06,1.08-4.73c.08-.36.15-.64.21-.83a1.32,1.32,0,0,1,.31-.49.82.82,0,0,1,.59-.21.77.77,0,0,1,.59.22,1.2,1.2,0,0,1,.28.47c.06.17.13.45.22.84l1.09,4.73,1-5.06c0-.26.1-.47.14-.62a1,1,0,0,1,.21-.4.57.57,0,0,1,.45-.18.64.64,0,0,1,.49.23.8.8,0,0,1,.21.57,4.59,4.59,0,0,1-.11.77L213.31,86a8.33,8.33,0,0,1-.21.86,1.11,1.11,0,0,1-.28.48.73.73,0,0,1-.56.21.77.77,0,0,1-.55-.2,1.13,1.13,0,0,1-.28-.45C211.37,86.71,211.3,86.42,211.2,86Z"/><path class="cls-4" d="M216.45,86.46V79.64a1.28,1.28,0,0,1,.2-.8.65.65,0,0,1,.53-.27.66.66,0,0,1,.55.27,1.25,1.25,0,0,1,.21.8v6.82a1.25,1.25,0,0,1-.21.8.66.66,0,0,1-.55.27.65.65,0,0,1-.53-.27A1.3,1.3,0,0,1,216.45,86.46Z"/><path class="cls-4" d="M225.14,80.17h-1.63v6.29a1.31,1.31,0,0,1-.21.81.64.64,0,0,1-.53.26.65.65,0,0,1-.54-.27,1.25,1.25,0,0,1-.21-.8V80.17H220.4a.74.74,0,0,1-.57-.2.75.75,0,0,1-.19-.52.71.71,0,0,1,.2-.53.73.73,0,0,1,.56-.2h4.74a.76.76,0,0,1,.57.2.73.73,0,0,1,.19.53.71.71,0,0,1-.19.52A.77.77,0,0,1,225.14,80.17Z"/><path class="cls-4" d="M229,79.64v2.48h3.22V79.64a1.35,1.35,0,0,1,.2-.8.64.64,0,0,1,.54-.27.65.65,0,0,1,.54.27,1.25,1.25,0,0,1,.21.8v6.82a1.25,1.25,0,0,1-.21.8.65.65,0,0,1-.54.27.63.63,0,0,1-.54-.27,1.3,1.3,0,0,1-.2-.8V83.55H229v2.91a1.25,1.25,0,0,1-.21.8.65.65,0,0,1-.54.27.63.63,0,0,1-.54-.27,1.3,1.3,0,0,1-.2-.8V79.64a1.28,1.28,0,0,1,.2-.8.63.63,0,0,1,.54-.27.65.65,0,0,1,.54.27A1.25,1.25,0,0,1,229,79.64Z"/><path class="cls-4" d="M243.71,79.64v4.53a9.43,9.43,0,0,1-.05,1,3.88,3.88,0,0,1-.19.84,2.18,2.18,0,0,1-.83,1.11,2.36,2.36,0,0,1-1.4.4,2.49,2.49,0,0,1-1.25-.28,1.94,1.94,0,0,1-.81-.9,3.56,3.56,0,0,1-.26-.76,3.4,3.4,0,0,1-.1-.82.87.87,0,0,1,.2-.63.62.62,0,0,1,.5-.22.52.52,0,0,1,.44.2,1.45,1.45,0,0,1,.24.63,4.83,4.83,0,0,0,.17.72,1,1,0,0,0,.28.47.82.82,0,0,0,.58.2c.65,0,1-.57,1-1.71V79.64a1.35,1.35,0,0,1,.2-.8.69.69,0,0,1,1.09,0A1.27,1.27,0,0,1,243.71,79.64Z"/><path class="cls-4" d="M251.67,84.78a2.94,2.94,0,0,1-.34,1.41,2.47,2.47,0,0,1-1,1,3.37,3.37,0,0,1-1.57.35,3.13,3.13,0,0,1-1.8-.48,2.73,2.73,0,0,1-.82-.93,2.39,2.39,0,0,1-.31-1.14.79.79,0,0,1,.19-.54.59.59,0,0,1,.48-.23.53.53,0,0,1,.4.18,1.48,1.48,0,0,1,.28.52,3.23,3.23,0,0,0,.3.69,1.27,1.27,0,0,0,.46.46,1.48,1.48,0,0,0,.78.18,1.56,1.56,0,0,0,1.07-.36,1.16,1.16,0,0,0,.42-.91,1.05,1.05,0,0,0-.23-.7,1.42,1.42,0,0,0-.57-.41c-.24-.09-.55-.19-1-.3a6.87,6.87,0,0,1-1.33-.51A2.17,2.17,0,0,1,246,81a2.49,2.49,0,0,1,.33-1.28,2.16,2.16,0,0,1,1-.85,3.4,3.4,0,0,1,1.48-.3,3.18,3.18,0,0,1,1.17.2,2.37,2.37,0,0,1,.82.53,2.06,2.06,0,0,1,.48.69,1.8,1.8,0,0,1,.15.7.88.88,0,0,1-.19.56.56.56,0,0,1-.47.25.5.5,0,0,1-.39-.15,2.16,2.16,0,0,1-.29-.49,2.21,2.21,0,0,0-.48-.77,1.27,1.27,0,0,0-.9-.27,1.41,1.41,0,0,0-.94.3.93.93,0,0,0-.35.72.84.84,0,0,0,.12.45,1.12,1.12,0,0,0,.33.32,2.13,2.13,0,0,0,.43.21l.71.23a8.78,8.78,0,0,1,1.13.38,3,3,0,0,1,.86.5,2,2,0,0,1,.55.74A2.86,2.86,0,0,1,251.67,84.78Z"/></g></g></svg>